<?xml version="1.0" encoding="utf-8"?>
<!-- Generator: Adobe Illustrator 17.0.0, SVG Export Plug-In . SVG Version: 6.00 Build 0)  -->
<!DOCTYPE svg PUBLIC "-//W3C//DTD SVG 1.1//EN" "http://www.w3.org/Graphics/SVG/1.1/DTD/svg11.dtd">
<svg version="1.1" id="Layer_1" xmlns="http://www.w3.org/2000/svg" xmlns:xlink="http://www.w3.org/1999/xlink" x="0px" y="0px"
	 width="15px" height="15px" viewBox="0 0 15 15" enable-background="new 0 0 15 15" xml:space="preserve">
<path fill="#FFFFFF" d="M7.145,5.397C6.038,3.429,4.854,1.824,4.767,1.707C2.981,2.55,1.648,4.196,1.232,6.179
	C1.4,6.182,4.07,6.214,7.145,5.397z M7.943,7.549c0.084-0.027,0.168-0.052,0.253-0.077c-0.161-0.364-0.336-0.729-0.52-1.088
	C4.378,7.371,1.213,7.299,1.1,7.296C1.098,7.364,1.095,7.432,1.095,7.499c0,1.647,0.622,3.148,1.643,4.283
	c-0.002-0.002-0.005-0.006-0.005-0.006S4.487,8.667,7.943,7.549z M3.563,12.549l0.001-0.003c-0.048-0.037-0.098-0.071-0.145-0.11
	C3.504,12.504,3.563,12.549,3.563,12.549z M5.966,1.281C5.96,1.282,5.954,1.284,5.949,1.285c0.01-0.002,0.016-0.003,0.016-0.003
	L5.966,1.281z M11.73,2.693C10.602,1.699,9.122,1.094,7.5,1.094c-0.52,0-1.025,0.064-1.509,0.181
	C6.088,1.404,7.29,3.002,8.385,5.012C10.8,4.107,11.713,2.719,11.73,2.693z M7.5,15C3.358,15,0,11.641,0,7.499
	C0,3.358,3.358,0,7.5,0C11.642,0,15,3.358,15,7.499C15,11.641,11.642,15,7.5,15z M8.59,8.548c-3.759,1.309-5,3.945-5.025,3.998
	c1.086,0.848,2.45,1.359,3.936,1.359c0.887,0,1.732-0.181,2.5-0.507c-0.095-0.561-0.467-2.523-1.368-4.864
	C8.618,8.538,8.604,8.542,8.59,8.548z M8.878,5.966c0.15,0.305,0.293,0.616,0.426,0.929c0.047,0.111,0.093,0.221,0.138,0.33
	c2.212-0.278,4.39,0.194,4.461,0.21c-0.015-1.52-0.558-2.913-1.457-4.004C12.433,3.45,11.406,4.934,8.878,5.966z M9.832,8.237
	c0.841,2.311,1.182,4.191,1.247,4.574c1.438-0.971,2.46-2.51,2.745-4.295C13.696,8.474,11.903,7.906,9.832,8.237z"/>
</svg>
