<?xml version="1.0" encoding="utf-8"?>
<!-- Generator: Adobe Illustrator 17.0.0, SVG Export Plug-In . SVG Version: 6.00 Build 0)  -->
<!DOCTYPE svg PUBLIC "-//W3C//DTD SVG 1.1//EN" "http://www.w3.org/Graphics/SVG/1.1/DTD/svg11.dtd">
<svg version="1.1" id="Layer_1" xmlns="http://www.w3.org/2000/svg" xmlns:xlink="http://www.w3.org/1999/xlink" x="0px" y="0px"
	 width="49.981px" height="24px" viewBox="0 0 49.981 24" enable-background="new 0 0 49.981 24" xml:space="preserve">
<g>
	<g>
		<path fill="#847B6D" d="M35.758,5.214c-1.057,0-2.058,0.275-3.007,0.823s-1.735,1.393-2.36,2.535h-0.065
			c-0.367-1.119-0.943-1.958-1.73-2.519C27.81,5.496,26.806,5,25.75,5c-1.121,0-2.585,0.42-3.469,0.969
			c-0.884,0.549-1.74,1.354-2.279,2.338V5h-3v19h3v-12c0-0.693,1.099-1.903,1.498-2.327c0.398-0.425,1.358-1.251,1.875-1.485
			c0.517-0.235,1.035-0.352,1.552-0.352c0.905,0,1.627,0.307,2.166,0.923c0.539,0.616,0.909,2.123,0.909,3.242v12h3l-0.091-11.077
			c0-0.694,0.078-1.68,0.304-2.251c0.226-0.571,0.522-1.069,0.889-1.494c0.367-0.425,0.797-0.756,1.293-0.991
			c0.496-0.235,1.024-0.352,1.584-0.352c0.884,0,1.627,0.307,2.231,0.923c0.603,0.616,0.79,1.123,0.79,2.242v13h3V11
			c0-1.903-0.374-3.266-1.365-4.274C38.646,5.719,37.352,5.214,35.758,5.214z M46.034,7c0.118-0.207,0.273-0.399,0.466-0.576
			c0.192-0.177,0.401-0.347,0.626-0.512c0.225-0.165,0.455-0.326,0.687-0.484c0.233-0.157,0.453-0.316,0.66-0.477
			c0.214-0.146,0.416-0.298,0.604-0.455c0.189-0.156,0.351-0.328,0.488-0.512c0.137-0.184,0.244-0.391,0.322-0.621
			c0.078-0.23,0.116-0.494,0.116-0.795c0-0.368-0.063-0.708-0.188-1.018c-0.126-0.311-0.307-0.582-0.543-0.813
			c-0.236-0.229-0.527-0.409-0.87-0.54C48.057,0.065,47.671,0,47.242,0c-0.532,0-0.996,0.086-1.391,0.259
			c-0.395,0.173-0.711,0.412-0.948,0.72c-0.207,0.268-0.362,0.564-0.465,0.886c-0.104,0.322-0.155,0.702-0.155,1.14h1.43
			c0-0.591,0.133-1.036,0.399-1.336c0.244-0.291,0.595-0.437,1.053-0.437c0.421,0,0.752,0.124,0.992,0.374
			c0.24,0.249,0.36,0.581,0.36,0.996c0,0.184-0.026,0.351-0.078,0.501c-0.052,0.149-0.127,0.287-0.227,0.414
			c-0.1,0.126-0.222,0.245-0.366,0.357c-0.144,0.111-0.309,0.228-0.493,0.351c-0.392,0.268-0.804,0.552-1.236,0.852
			c-0.432,0.299-0.815,0.64-1.147,1.024c-0.251,0.292-0.421,0.63-0.599,0.974c-0.023,0.044-0.2,0.418-0.215,0.924h5.846V7H46.034z
			 M12.382,5.753c-0.573-0.343-1.221-0.595-1.948-0.755c-0.727-0.159-1.508-0.24-2.345-0.24c-1.189,0-2.229,0.16-3.12,0.48
			C4.078,5.558,3.335,5.993,2.74,6.541C2.146,7.09,1.695,7.719,1.387,8.428C1.078,9.136,1.024,10.223,1.002,11h3
			c0.044-1.098,0.223-2.367,0.967-2.949C5.709,7.474,6.714,7.09,8.123,7.09c1.233,0,2.174,0.287,2.823,0.858
			c0.649,0.571,0.974,1.36,0.974,2.366c0,0.48-0.099,0.87-0.297,1.166c-0.198,0.298-0.485,0.544-0.859,0.739
			c-0.375,0.194-0.825,0.348-1.354,0.462c-0.528,0.115-1.123,0.206-1.783,0.274c-1.145,0.137-2.185,0.321-3.12,0.549
			c-0.936,0.229-1.739,0.549-2.411,0.961c-0.672,0.411-1.189,0.959-1.552,1.645C0.181,16.797,0,17.677,0,18.752
			c0,0.891,0.154,1.663,0.462,2.315c0.308,0.651,0.732,1.195,1.271,1.629c0.539,0.435,1.177,0.76,1.915,0.977
			C4.386,23.891,5.173,24,6.009,24c0.748,0,1.425-0.086,2.031-0.258c0.605-0.172,1.15-0.401,1.634-0.686
			c0.484-0.286,0.913-0.612,1.288-0.977c0.374-0.366,0.704-0.755,0.991-1.167L11.821,24h3.182V11c0-1.235-0.452-2.503-0.87-3.326
			C13.714,6.85,13.13,6.21,12.382,5.753z M11.953,16.831c0,0.527-0.105,1.075-0.314,1.647c-0.209,0.571-0.528,1.092-0.958,1.559
			c-0.43,0.469-0.969,0.858-1.618,1.167c-0.649,0.308-1.414,0.463-2.294,0.463c-0.441,0-0.875-0.039-1.305-0.121
			c-0.429-0.08-0.809-0.233-1.139-0.462c-0.33-0.228-0.595-0.532-0.793-0.909s-0.297-0.863-0.297-1.457
			c0-0.64,0.115-1.161,0.347-1.56c0.231-0.4,0.555-0.732,0.974-0.995c0.418-0.263,0.924-0.469,1.519-0.617
			c0.594-0.149,1.255-0.292,1.981-0.429c0.726-0.137,1.447-0.315,2.163-0.531c0.715-0.217,1.293-0.475,1.734-0.772V16.831z"/>
	</g>
</g>
</svg>
