<?xml version="1.0" encoding="utf-8"?>
<!-- Generator: Adobe Illustrator 17.0.0, SVG Export Plug-In . SVG Version: 6.00 Build 0)  -->
<!DOCTYPE svg PUBLIC "-//W3C//DTD SVG 1.1//EN" "http://www.w3.org/Graphics/SVG/1.1/DTD/svg11.dtd">
<svg version="1.1" id="Layer_1" xmlns="http://www.w3.org/2000/svg" xmlns:xlink="http://www.w3.org/1999/xlink" x="0px" y="0px"
	 width="15px" height="15px" viewBox="0 0 15 15" enable-background="new 0 0 15 15" xml:space="preserve">
<path fill="#FFFFFF" d="M15,2.834c-0.552,0.245-1.145,0.411-1.768,0.485c0.636-0.382,1.124-0.987,1.353-1.708
	c-0.595,0.354-1.253,0.611-1.954,0.749c-0.561-0.6-1.361-0.974-2.246-0.974c-1.699,0-3.077,1.382-3.077,3.086
	c0,0.242,0.027,0.477,0.08,0.704C4.83,5.048,2.562,3.819,1.044,1.952C0.779,2.408,0.627,2.938,0.627,3.503
	c0,1.071,0.543,2.016,1.369,2.569C1.492,6.056,1.017,5.918,0.602,5.687c0,0.012,0,0.025,0,0.038c0,1.496,1.061,2.743,2.469,3.026
	C2.813,8.822,2.541,8.861,2.26,8.861c-0.198,0-0.391-0.02-0.579-0.055c0.392,1.226,1.528,2.118,2.875,2.143
	c-1.053,0.828-2.38,1.321-3.822,1.321c-0.248,0-0.493-0.014-0.734-0.043c1.362,0.876,2.979,1.387,4.717,1.387
	c5.66,0,8.756-4.704,8.756-8.783c0-0.133-0.003-0.266-0.009-0.399C14.066,3.996,14.587,3.453,15,2.834z"/>
</svg>
