<?xml version="1.0" encoding="utf-8"?>
<!-- Generator: Adobe Illustrator 17.0.0, SVG Export Plug-In . SVG Version: 6.00 Build 0)  -->
<!DOCTYPE svg PUBLIC "-//W3C//DTD SVG 1.1//EN" "http://www.w3.org/Graphics/SVG/1.1/DTD/svg11.dtd">
<svg version="1.1" id="Layer_1" xmlns="http://www.w3.org/2000/svg" xmlns:xlink="http://www.w3.org/1999/xlink" x="0px" y="0px"
	 width="37.889px" height="25px" viewBox="0 0 37.889 25" enable-background="new 0 0 37.889 25" xml:space="preserve">
<path fill="#FFFFFF" d="M15.292,11.177c0,0,3.585-0.278,3.585-4.659C18.876,2.137,15.944,0,12.227,0H0v24.483h12.227
	c0,0,7.465,0.245,7.465-7.227C19.692,17.256,20.018,11.177,15.292,11.177z M5.389,4.351h6.839c0,0,1.662,0,1.662,2.547
	c0,2.547-0.977,2.916-2.086,2.916H5.389V4.351z M11.882,20.131H5.389v-6.542h6.839c0,0,2.478-0.034,2.478,3.362
	C14.705,19.814,12.854,20.109,11.882,20.131z M29.647,6.229c-9.036,0-9.029,9.405-9.029,9.405s-0.619,9.359,9.029,9.359
	c0,0,8.04,0.48,8.04-6.51h-4.134c0,0,0.137,2.632-3.768,2.632c0,0-4.135,0.288-4.135-4.259h12.176
	C37.825,16.856,39.158,6.229,29.647,6.229z M33.322,13.589h-7.718c0,0,0.505-3.774,4.134-3.774
	C33.367,9.815,33.322,13.589,33.322,13.589z M34.286,1.441h-9.693v3.016h9.693V1.441z"/>
</svg>
