<?xml version="1.0" encoding="utf-8"?>
<!-- Generator: Adobe Illustrator 17.0.0, SVG Export Plug-In . SVG Version: 6.00 Build 0)  -->
<!DOCTYPE svg PUBLIC "-//W3C//DTD SVG 1.1//EN" "http://www.w3.org/Graphics/SVG/1.1/DTD/svg11.dtd">
<svg version="1.1" id="Layer_1" xmlns="http://www.w3.org/2000/svg" xmlns:xlink="http://www.w3.org/1999/xlink" x="0px" y="0px"
	 width="15px" height="15px" viewBox="0 0 15 15" enable-background="new 0 0 15 15" xml:space="preserve">
<path fill="#FFFFFF" d="M12.035,7.5c0,2.504-2.031,4.535-4.535,4.535c-2.505,0-4.535-2.031-4.535-4.535
	c0-0.299,0.03-0.59,0.084-0.872H0.001v6.028C0.001,13.95,1.049,15,2.344,15h10.312C13.95,15,15,13.95,15,12.657V6.628h-3.05
	C12.005,6.91,12.035,7.201,12.035,7.5z M12.656,0H2.344C1.049,0,0.001,1.05,0.001,2.344v2.539h3.796
	C4.618,3.723,5.97,2.965,7.5,2.965c1.529,0,2.881,0.758,3.702,1.919H15V2.344C15,1.05,13.95,0,12.656,0z M13.802,2.895
	c0,0.231-0.188,0.418-0.418,0.418h-1.256c-0.23,0-0.419-0.188-0.419-0.418V1.64c0-0.231,0.189-0.418,0.419-0.418h1.256
	c0.23,0,0.418,0.188,0.418,0.418V2.895z M10.291,7.5c0-1.542-1.25-2.791-2.791-2.791C5.959,4.709,4.71,5.959,4.71,7.5
	c0,1.541,1.249,2.791,2.791,2.791C9.041,10.291,10.291,9.041,10.291,7.5z"/>
</svg>
