<?xml version="1.0" encoding="utf-8"?>
<!-- Generator: Adobe Illustrator 17.0.0, SVG Export Plug-In . SVG Version: 6.00 Build 0)  -->
<!DOCTYPE svg PUBLIC "-//W3C//DTD SVG 1.1//EN" "http://www.w3.org/Graphics/SVG/1.1/DTD/svg11.dtd">
<svg version="1.1" id="Layer_1" xmlns="http://www.w3.org/2000/svg" xmlns:xlink="http://www.w3.org/1999/xlink" x="0px" y="0px"
	 width="15px" height="15px" viewBox="0 0 15 15" enable-background="new 0 0 15 15" xml:space="preserve">
<g>
	<g>
		<g>
			<path fill="#FFFFFF" d="M1.709,0C0.675,0,0,0.698,0,1.608c0,0.888,0.654,1.608,1.666,1.608c1.076,0,1.73-0.72,1.73-1.608
				C3.376,0.698,2.742,0,1.709,0z M0.084,14.832h3.207V4.486H0.084V14.832z M11.308,4.253c-1.73,0-2.764,0.994-3.186,1.672H8.059
				L7.911,4.486H5.126C5.168,5.417,5.21,6.496,5.21,7.787v7.046h3.207V8.866c0-0.296,0.021-0.593,0.106-0.804
				c0.232-0.593,0.759-1.207,1.645-1.207c1.161,0,1.625,0.91,1.625,2.243v5.734H15V8.717C15,5.671,13.418,4.253,11.308,4.253z"/>
		</g>
	</g>
</g>
</svg>
