<?xml version="1.0" encoding="utf-8"?>
<!-- Generator: Adobe Illustrator 17.0.0, SVG Export Plug-In . SVG Version: 6.00 Build 0)  -->
<!DOCTYPE svg PUBLIC "-//W3C//DTD SVG 1.1//EN" "http://www.w3.org/Graphics/SVG/1.1/DTD/svg11.dtd">
<svg version="1.1" id="Layer_1" xmlns="http://www.w3.org/2000/svg" xmlns:xlink="http://www.w3.org/1999/xlink" x="0px" y="0px"
	 width="50px" height="24px" viewBox="0 0 50 24" enable-background="new 0 0 50 24" xml:space="preserve">
<g>
	<g>
		<path fill="#FFFFFF" d="M35.675,5.116c-1.048,0-2.043,0.272-2.984,0.816c-0.941,0.545-1.722,1.383-2.342,2.516h-0.064
			c-0.364-1.111-0.936-1.944-1.717-2.5c-0.781-0.555-1.695-0.833-2.743-0.833c-1.113,0-2.107,0.272-2.984,0.816
			c-0.877,0.545-2.268,1.275-2.802,2.252V4.902h-2.977v18.857h2.977V11.849c0-0.688,0.775-1.698,0.902-1.832
			c0.444-0.466,0.686-0.546,1.082-0.969c0.396-0.422,0.85-0.75,1.363-0.983c0.513-0.233,1.027-0.35,1.54-0.35
			c0.898,0,1.615,0.306,2.149,0.916c0.534,0.611,0.902,2.107,0.902,3.217v11.909h2.977l-0.09-10.993
			c0-0.688,0.077-1.667,0.302-2.234c0.225-0.566,0.518-1.061,0.882-1.483c0.364-0.422,0.791-0.75,1.283-0.983
			c0.492-0.233,1.016-0.35,1.572-0.35c0.877,0,1.615,0.306,2.214,0.916c0.599,0.611,0.784,1.114,0.784,2.225v12.902h2.977V10.857
			c0-1.888-0.371-3.241-1.355-4.241C38.541,5.616,37.258,5.116,35.675,5.116z M45.874,6.887c0.117-0.206,0.271-0.396,0.462-0.571
			c0.19-0.175,0.398-0.345,0.621-0.509c0.224-0.164,0.451-0.324,0.682-0.48c0.231-0.156,0.449-0.314,0.655-0.474
			c0.213-0.144,0.412-0.295,0.599-0.451c0.187-0.156,0.348-0.326,0.484-0.508c0.136-0.183,0.242-0.388,0.319-0.617
			c0.077-0.228,0.116-0.491,0.116-0.788c0-0.366-0.063-0.703-0.187-1.011C49.5,1.169,49.321,0.9,49.086,0.672
			c-0.235-0.228-0.523-0.407-0.863-0.537c-0.341-0.129-0.724-0.194-1.15-0.194c-0.528,0-0.989,0.086-1.381,0.257
			c-0.392,0.172-0.706,0.409-0.94,0.714c-0.205,0.267-0.359,0.56-0.462,0.88c-0.103,0.32-0.154,0.697-0.154,1.131h1.419
			c0-0.587,0.132-1.028,0.396-1.326c0.242-0.289,0.59-0.434,1.045-0.434c0.418,0,0.746,0.124,0.984,0.371
			c0.238,0.248,0.358,0.577,0.358,0.988c0,0.183-0.026,0.348-0.077,0.497c-0.051,0.149-0.126,0.286-0.225,0.411
			c-0.099,0.126-0.22,0.244-0.363,0.354c-0.143,0.11-0.306,0.227-0.489,0.348c-0.389,0.267-0.798,0.548-1.227,0.846
			c-0.429,0.297-0.808,0.636-1.139,1.017c-0.25,0.29-0.418,0.625-0.594,0.966c-0.023,0.044-0.351,0.415-0.366,0.918h5.955V6.887
			H45.874z M12.476,5.65c-0.568-0.34-1.212-0.59-1.933-0.749C9.822,4.743,9.046,4.663,8.216,4.663c-1.18,0-2.212,0.159-3.097,0.476
			C4.235,5.457,3.497,5.888,2.907,6.433c-0.59,0.545-1.038,1.169-1.343,1.872c-0.306,0.704-0.36,1.781-0.382,2.552H4.16
			c0.043-1.089,0.222-2.35,0.96-2.927c0.734-0.573,1.731-0.953,3.13-0.953c1.223,0,2.157,0.284,2.802,0.851
			c0.644,0.567,0.967,1.35,0.967,2.349c0,0.477-0.098,0.863-0.295,1.157c-0.197,0.295-0.481,0.539-0.852,0.732
			c-0.372,0.193-0.819,0.346-1.344,0.459c-0.524,0.114-1.114,0.204-1.77,0.272c-1.136,0.136-2.168,0.318-3.097,0.545
			c-0.929,0.227-1.726,0.545-2.393,0.953c-0.667,0.409-1.18,0.953-1.54,1.634c-0.361,0.681-0.541,1.555-0.541,2.621
			c0,0.885,0.153,1.651,0.459,2.298c0.305,0.647,0.726,1.186,1.262,1.617c0.535,0.431,1.168,0.755,1.901,0.97
			c0.732,0.215,1.512,0.323,2.343,0.323c0.743,0,1.414-0.085,2.016-0.255c0.6-0.17,1.141-0.397,1.622-0.681
			c0.48-0.284,0.906-0.607,1.278-0.97c0.371-0.363,0.699-0.749,0.983-1.157l-0.132,3.064h3.158V10.857
			c0-1.225-0.448-2.484-0.863-3.301C13.798,6.739,13.219,6.104,12.476,5.65z M12.051,16.644c0,0.522-0.104,1.067-0.311,1.634
			c-0.208,0.567-0.524,1.084-0.95,1.549c-0.426,0.465-0.962,0.851-1.606,1.157c-0.645,0.306-1.404,0.46-2.277,0.46
			c-0.437,0-0.869-0.039-1.295-0.119c-0.426-0.079-0.803-0.232-1.13-0.46c-0.328-0.227-0.59-0.528-0.787-0.902
			c-0.197-0.374-0.295-0.856-0.295-1.447c0-0.635,0.114-1.152,0.344-1.549c0.229-0.397,0.551-0.726,0.967-0.987
			c0.415-0.261,0.918-0.465,1.507-0.613c0.59-0.147,1.245-0.289,1.966-0.426c0.721-0.136,1.436-0.312,2.146-0.528
			c0.709-0.215,1.283-0.471,1.721-0.766V16.644z"/>
	</g>
</g>
</svg>
