<?xml version="1.0" encoding="utf-8"?>
<!-- Generator: Adobe Illustrator 17.0.2, SVG Export Plug-In . SVG Version: 6.00 Build 0)  -->
<!DOCTYPE svg PUBLIC "-//W3C//DTD SVG 1.1//EN" "http://www.w3.org/Graphics/SVG/1.1/DTD/svg11.dtd">
<svg version="1.1" id="Layer_1" xmlns="http://www.w3.org/2000/svg" xmlns:xlink="http://www.w3.org/1999/xlink" x="0px" y="0px"
	 width="462px" height="200px" viewBox="0 0 462 200" enable-background="new 0 0 462 200" xml:space="preserve">
<line fill="none" stroke="#E5E5E5" stroke-miterlimit="10" x1="-463" y1="100.5" x2="0" y2="100.5"/>
<g>
	<path fill="#252525" d="M30.856,2.062h1.568l27.804,58.166h-1.98l-8.25-17.326H13.201L4.95,60.228H3.053L30.856,2.062z
		 M49.173,41.252L31.6,4.455L14.026,41.252H49.173z"/>
	<path fill="#252525" d="M66.66,48.842v-0.165c0-8.663,8.085-13.118,18.398-13.118c5.775,0,11.386,1.073,15.511,2.558v-3.465
		c0-9.983-5.94-14.686-15.594-14.686c-5.115,0-9.405,1.403-13.695,3.465l-0.66-1.485c4.538-2.228,9.075-3.63,14.438-3.63
		c5.692,0,10.148,1.485,13.2,4.538c2.558,2.558,4.043,6.601,4.043,11.716v25.659h-1.732v-9.735
		c-1.732,4.785-7.92,10.726-18.48,10.726C74.003,61.218,66.66,57.01,66.66,48.842z M100.569,45.13v-5.28
		c-4.373-1.65-9.158-2.64-15.429-2.64c-9.322,0-16.665,3.795-16.665,11.385v0.165c0,7.261,6.435,10.808,13.695,10.808
		C93.227,59.568,100.569,52.473,100.569,45.13z"/>
	<path fill="#252525" d="M160.63,17.243c0,7.096-3.96,10.726-8.251,12.953c6.766,2.31,11.469,6.188,11.469,14.108
		c0,10.396-8.498,15.923-21.369,15.923h-26.731V2.475h25.906C153.287,2.475,160.63,8.168,160.63,17.243z M150.481,18.894
		c0-4.703-3.63-7.426-10.147-7.426H125.73v15.346h13.86C146.109,26.814,150.481,24.256,150.481,18.894z M153.699,43.232
		c0-4.95-3.878-7.838-11.881-7.838H125.73v15.841h16.831C149.491,51.235,153.699,48.512,153.699,43.232z"/>
	<path fill="#252525" d="M198.082,61.136c-7.178,0-11.715-3.63-14.768-7.673v6.765h-9.983V0h9.983v23.926
		c3.218-4.538,7.755-8.168,14.768-8.168c10.313,0,20.297,8.168,20.297,22.688C218.379,52.968,208.478,61.136,198.082,61.136z
		 M195.772,24.421c-6.766,0-12.706,5.527-12.706,14.025s5.94,14.026,12.706,14.026c6.848,0,12.458-5.363,12.458-14.026
		C208.23,29.867,202.538,24.421,195.772,24.421z"/>
	<path fill="#252525" d="M255.502,61.218c-16.995,0-29.619-13.118-29.619-29.702v-0.165c0-16.418,12.376-29.867,30.114-29.867
		c10.891,0,17.408,3.63,22.771,8.911l-8.086,9.323c-4.455-4.042-8.992-6.518-14.768-6.518c-9.735,0-16.749,8.085-16.749,17.986
		v0.165c0,9.9,6.849,18.151,16.749,18.151c6.6,0,10.643-2.64,15.181-6.765l8.085,8.168C273.24,57.258,266.641,61.218,255.502,61.218
		z"/>
	<path fill="#252525" d="M307.229,61.218c-13.283,0-23.019-10.23-23.019-22.854v-0.165c0-12.623,9.652-23.019,23.184-23.019
		c8.333,0,13.53,2.805,17.655,7.425l-7.673,8.25c-2.805-2.97-5.61-4.868-10.065-4.868c-6.271,0-10.726,5.528-10.726,12.045v0.165
		c0,6.766,4.373,12.211,11.221,12.211c4.208,0,7.096-1.815,10.148-4.703l7.343,7.425C321.007,57.835,316.057,61.218,307.229,61.218z
		"/>
	<path fill="#252525" d="M339.237,18.976l-9.405,2.062l-3.466-14.273l17.244-4.703h14.603v58.166h-18.976V18.976z"/>
	<path fill="#252525" d="M362.419,46.202l23.926-17.161c3.631-2.558,5.033-4.785,5.033-7.013c0-2.475-1.897-4.29-5.198-4.29
		c-3.3,0-6.353,2.062-11.138,7.178l-12.706-10.808c6.684-8.25,13.448-12.706,25.494-12.706c13.201,0,22.688,7.92,22.688,18.894
		v0.165c0,8.828-4.702,13.613-11.633,18.068l-10.312,6.601h22.523v15.098h-48.678V46.202z"/>
	<path fill="#252525" d="M411.589,51.07l11.468-11.798c4.29,4.042,8.828,6.271,13.613,6.271c4.29,0,6.601-1.898,6.601-4.621v-0.165
		c0-2.805-2.476-4.62-7.591-4.62h-8.168l-2.558-8.581l12.706-10.065h-21.451V2.475h44.387v13.283l-12.953,9.735
		c8.663,2.31,14.273,7.343,14.273,16.418v0.165c0,12.458-10.891,19.389-23.679,19.389C426.356,61.466,417.941,57.588,411.589,51.07z
		"/>
</g>
<g>
	<path fill="#252525" d="M0,140.867v-0.048c0-4.897,3.84-8.737,9.049-8.737c2.952,0,5.04,0.912,6.816,2.448l-2.736,3.288
		c-1.2-1.008-2.4-1.584-4.057-1.584c-2.424,0-4.296,2.04-4.296,4.608v0.048c0,2.713,1.896,4.657,4.561,4.657
		c1.128,0,1.992-0.24,2.688-0.696v-2.04H8.713v-3.408h7.729v7.561c-1.776,1.464-4.249,2.592-7.297,2.592
		C3.913,149.556,0,145.955,0,140.867z"/>
	<path fill="#252525" d="M17.76,142.787v-0.048c0-3.696,3.024-6.793,7.2-6.793c4.152,0,7.153,3.049,7.153,6.745v0.048
		c0,3.696-3.024,6.793-7.201,6.793C20.76,149.532,17.76,146.483,17.76,142.787z M27.673,142.787v-0.048
		c0-1.584-1.152-2.929-2.761-2.929c-1.656,0-2.712,1.32-2.712,2.881v0.048c0,1.584,1.152,2.928,2.76,2.928
		C26.617,145.667,27.673,144.348,27.673,142.787z"/>
	<path fill="#252525" d="M34.221,145.188v-5.28h-1.536v-3.673h1.536v-3.288h4.561v3.288h3.023v3.673h-3.023v4.392
		c0,0.912,0.407,1.297,1.248,1.297c0.6,0,1.176-0.168,1.728-0.433v3.576c-0.815,0.456-1.896,0.744-3.168,0.744
		C35.853,149.483,34.221,148.283,34.221,145.188z"/>
	<path fill="#252525" d="M43.292,131.698h4.561v6.312c0.84-1.08,2.04-2.064,3.889-2.064c2.76,0,4.416,1.824,4.416,4.776v8.497
		h-4.561v-7.032c0-1.416-0.744-2.185-1.824-2.185c-1.104,0-1.92,0.769-1.92,2.185v7.032h-4.561V131.698z"/>
	<path fill="#252525" d="M57.38,145.499v-0.048c0-2.688,2.04-4.08,5.089-4.08c1.2,0,2.376,0.24,3.12,0.504v-0.216
		c0-1.344-0.84-2.112-2.593-2.112c-1.368,0-2.424,0.264-3.576,0.72l-0.936-3.216c1.464-0.601,3.024-1.009,5.256-1.009
		c2.328,0,3.913,0.553,4.944,1.585c0.984,0.96,1.393,2.304,1.393,4.128v7.465h-4.513v-1.344c-0.888,0.983-2.112,1.632-3.816,1.632
		C59.277,149.508,57.38,148.092,57.38,145.499z M65.637,144.516v-0.601c-0.456-0.191-1.104-0.336-1.776-0.336
		c-1.32,0-2.088,0.648-2.088,1.608v0.048c0,0.888,0.672,1.416,1.608,1.416C64.701,146.651,65.637,145.812,65.637,144.516z"/>
	<path fill="#252525" d="M71.924,136.234h4.561v1.776c0.84-1.08,2.04-2.064,3.864-2.064c1.729,0,3.049,0.769,3.744,2.112
		c1.129-1.296,2.448-2.112,4.345-2.112c2.76,0,4.44,1.729,4.44,4.753v8.521h-4.561v-7.057c0-1.416-0.696-2.16-1.776-2.16
		s-1.872,0.744-1.872,2.16v7.057h-4.561v-7.057c0-1.416-0.695-2.16-1.775-2.16s-1.849,0.744-1.849,2.16v7.057h-4.561V136.234z"/>
</g>
<g>
	<path fill="#252525" d="M133.575,146.129v-0.036c0-2.017,1.53-3.061,3.816-3.061c0.9,0,1.783,0.18,2.341,0.378v-0.162
		c0-1.008-0.63-1.584-1.944-1.584c-1.026,0-1.818,0.198-2.683,0.54l-0.702-2.413c1.099-0.45,2.269-0.756,3.943-0.756
		c1.746,0,2.935,0.414,3.709,1.188c0.738,0.72,1.044,1.729,1.044,3.097v5.6h-3.385v-1.009c-0.666,0.738-1.585,1.225-2.863,1.225
		C134.997,149.136,133.575,148.073,133.575,146.129z M139.769,145.391v-0.45c-0.342-0.144-0.828-0.252-1.332-0.252
		c-0.99,0-1.566,0.486-1.566,1.207v0.035c0,0.667,0.504,1.062,1.206,1.062C139.066,146.993,139.769,146.363,139.769,145.391z"/>
	<path fill="#252525" d="M147.904,147.731v1.188h-3.421v-13.144h3.421v4.699c0.666-0.811,1.494-1.513,2.952-1.513
		c2.323,0,4.321,1.927,4.321,5.042v0.035c0,3.169-1.998,5.096-4.303,5.096C149.398,149.136,148.534,148.47,147.904,147.731z
		 M151.812,144.059v-0.036c0-1.278-0.883-2.196-1.999-2.196c-1.099,0-1.98,0.918-1.98,2.196v0.036c0,1.296,0.882,2.215,1.98,2.215
		C150.929,146.273,151.812,145.373,151.812,144.059z"/>
	<path fill="#252525" d="M155.895,144.095v-0.036c0-2.755,2.143-5.077,5.222-5.077c1.999,0,3.331,0.863,4.159,2.178l-2.322,1.729
		c-0.468-0.647-0.99-1.025-1.818-1.025c-1.099,0-1.909,0.972-1.909,2.16v0.036c0,1.261,0.793,2.215,1.945,2.215
		c0.81,0,1.332-0.378,1.872-1.009l2.287,1.656c-0.9,1.333-2.197,2.233-4.34,2.233C158.056,149.154,155.895,146.85,155.895,144.095z"
		/>
	<path fill="#252525" d="M165.633,144.095v-0.036c0-3.169,1.98-5.096,4.285-5.096c1.477,0,2.341,0.666,2.989,1.404v-4.591h3.421
		v13.144h-3.421v-1.296c-0.667,0.81-1.513,1.512-2.972,1.512C167.631,149.136,165.633,147.209,165.633,144.095z M172.961,144.059
		v-0.036c0-1.278-0.883-2.196-1.98-2.196c-1.099,0-1.999,0.899-1.999,2.196v0.036c0,1.296,0.9,2.215,1.999,2.215
		C172.078,146.273,172.961,145.354,172.961,144.059z"/>
	<path fill="#252525" d="M177.404,144.095v-0.036c0-2.845,2.034-5.096,4.915-5.096c3.367,0,4.916,2.467,4.916,5.33
		c0,0.216,0,0.468-0.019,0.702h-6.518c0.271,1.062,1.044,1.603,2.106,1.603c0.811,0,1.459-0.307,2.161-0.991l1.891,1.567
		c-0.937,1.188-2.287,1.98-4.231,1.98C179.564,149.154,177.404,147.119,177.404,144.095z M184.03,143.248
		c-0.126-1.08-0.756-1.765-1.692-1.765c-0.9,0-1.513,0.702-1.692,1.765H184.03z"/>
	<path fill="#252525" d="M188.942,141.916h-1.135v-2.683h1.135v-0.217c0-1.116,0.252-1.944,0.828-2.521
		c0.594-0.594,1.387-0.846,2.539-0.846c1.044,0,1.692,0.107,2.232,0.27v2.413c-0.396-0.126-0.792-0.198-1.278-0.198
		c-0.63,0-0.973,0.288-0.973,0.918v0.234h2.233v2.629h-2.179v7.004h-3.403V141.916z"/>
	<path fill="#252525" d="M194.972,150.721l1.099-2.269c1.044,0.576,2.089,0.918,3.403,0.918c1.71,0,2.557-0.847,2.557-2.395v-0.378
		c-0.685,0.792-1.585,1.458-3.007,1.458c-2.395,0-4.321-1.729-4.321-4.52V143.5c0-2.809,1.962-4.537,4.213-4.537
		c1.459,0,2.323,0.595,3.062,1.368v-1.152h3.421v7.4c0,1.782-0.396,3.025-1.261,3.89c-0.882,0.882-2.251,1.368-4.285,1.368
		C197.961,151.837,196.376,151.44,194.972,150.721z M202.03,143.536V143.5c0-1.08-0.828-1.872-1.98-1.872
		c-1.171,0-1.999,0.811-1.999,1.891v0.036c0,1.08,0.828,1.872,1.999,1.872C201.202,145.427,202.03,144.616,202.03,143.536z"/>
	<path fill="#252525" d="M206.87,135.776h3.421v4.735c0.63-0.811,1.53-1.549,2.917-1.549c2.07,0,3.313,1.368,3.313,3.583v6.374
		H213.1v-5.275c0-1.062-0.558-1.639-1.368-1.639c-0.828,0-1.44,0.576-1.44,1.639v5.275h-3.421V135.776z"/>
	<path fill="#252525" d="M217.922,135.776h3.565v2.521h-3.565V135.776z M217.994,139.179h3.421v9.741h-3.421V139.179z"/>
	<path fill="#252525" d="M221.575,151.729v-2.269c0.144,0.019,0.306,0.019,0.45,0.019c0.666,0,1.008-0.288,1.008-1.135v-9.165h3.421
		v9.309c0,2.467-1.26,3.367-3.475,3.367C222.439,151.854,221.989,151.783,221.575,151.729z M222.962,135.776h3.564v2.521h-3.564
		V135.776z"/>
	<path fill="#252525" d="M228.037,135.776h3.421v6.662l2.646-3.26h3.872l-3.386,3.907l3.476,5.834h-3.764l-1.962-3.313l-0.883,1.026
		v2.287h-3.421V135.776z"/>
	<path fill="#252525" d="M238.604,135.776h3.421v13.144h-3.421V135.776z"/>
	<path fill="#252525" d="M243.571,139.179h3.421v1.333c0.63-0.811,1.53-1.549,2.898-1.549c1.297,0,2.287,0.576,2.809,1.585
		c0.847-0.973,1.837-1.585,3.26-1.585c2.07,0,3.33,1.297,3.33,3.565v6.392h-3.421v-5.294c0-1.062-0.521-1.62-1.332-1.62
		s-1.404,0.559-1.404,1.62v5.294h-3.421v-5.294c0-1.062-0.522-1.62-1.333-1.62c-0.81,0-1.386,0.559-1.386,1.62v5.294h-3.421V139.179
		z"/>
	<path fill="#252525" d="M260.689,139.179h3.421v1.369c0.63-0.811,1.53-1.585,2.917-1.585c2.07,0,3.312,1.368,3.312,3.583v6.374
		h-3.421v-5.275c0-1.062-0.559-1.639-1.368-1.639c-0.828,0-1.44,0.576-1.44,1.639v5.275h-3.421V139.179z"/>
	<path fill="#252525" d="M271.345,144.095v-0.036c0-2.772,2.269-5.096,5.401-5.096c3.115,0,5.366,2.287,5.366,5.06v0.036
		c0,2.772-2.27,5.096-5.402,5.096C273.596,149.154,271.345,146.867,271.345,144.095z M278.781,144.095v-0.036
		c0-1.188-0.864-2.196-2.071-2.196c-1.242,0-2.034,0.99-2.034,2.16v0.036c0,1.188,0.864,2.196,2.07,2.196
		C277.988,146.255,278.781,145.265,278.781,144.095z"/>
	<path fill="#252525" d="M283.188,139.179h3.421v1.297c0.666-0.811,1.494-1.513,2.953-1.513c2.322,0,4.321,1.927,4.321,5.042v0.035
		c0,3.169-1.999,5.096-4.304,5.096c-1.477,0-2.341-0.666-2.971-1.404v4.069h-3.421V139.179z M290.517,144.059v-0.036
		c0-1.278-0.882-2.196-1.998-2.196c-1.099,0-1.981,0.918-1.981,2.196v0.036c0,1.296,0.883,2.215,1.981,2.215
		C289.635,146.273,290.517,145.373,290.517,144.059z"/>
	<path fill="#252525" d="M301.91,147.624c-0.666,0.81-1.513,1.512-2.971,1.512c-2.305,0-4.304-1.927-4.304-5.041v-0.036
		c0-3.169,1.98-5.096,4.285-5.096c1.477,0,2.341,0.666,2.989,1.404v-1.188h3.421v12.622h-3.421V147.624z M301.964,144.059v-0.036
		c0-1.278-0.882-2.196-1.98-2.196c-1.098,0-1.998,0.899-1.998,2.196v0.036c0,1.296,0.9,2.215,1.998,2.215
		C301.082,146.273,301.964,145.354,301.964,144.059z"/>
	<path fill="#252525" d="M306.805,139.179h3.421v1.963c0.558-1.332,1.458-2.196,3.078-2.125v3.602h-0.288
		c-1.782,0-2.79,1.026-2.79,3.277v3.024h-3.421V139.179z"/>
	<path fill="#252525" d="M313.41,147.695l1.278-2.07c1.116,0.738,2.341,1.116,3.349,1.116c0.594,0,0.864-0.18,0.864-0.522v-0.036
		c0-0.378-0.54-0.54-1.566-0.828c-1.927-0.504-3.457-1.152-3.457-3.114v-0.036c0-2.07,1.656-3.223,3.907-3.223
		c1.422,0,2.898,0.414,4.015,1.134l-1.17,2.161c-1.008-0.559-2.106-0.9-2.881-0.9c-0.522,0-0.792,0.197-0.792,0.468v0.036
		c0,0.378,0.558,0.559,1.584,0.864c1.927,0.54,3.457,1.206,3.457,3.097v0.036c0,2.143-1.603,3.259-3.979,3.259
		C316.381,149.136,314.76,148.668,313.41,147.695z"/>
	<path fill="#252525" d="M323.454,145.896v-3.962h-1.152v-2.755h1.152v-2.467h3.421v2.467h2.269v2.755h-2.269v3.295
		c0,0.685,0.307,0.973,0.937,0.973c0.45,0,0.882-0.126,1.296-0.324v2.683c-0.612,0.343-1.422,0.559-2.376,0.559
		C324.679,149.118,323.454,148.218,323.454,145.896z"/>
	<path fill="#252525" d="M330.186,145.553v-6.374h3.421v5.275c0,1.062,0.559,1.639,1.387,1.639c0.811,0,1.423-0.576,1.423-1.639
		v-5.275h3.421v9.741h-3.421v-1.332c-0.631,0.81-1.531,1.548-2.917,1.548C331.428,149.136,330.186,147.768,330.186,145.553z"/>
	<path fill="#252525" d="M340.571,139.179h3.602l1.872,5.69l1.873-5.69h3.547l-3.89,9.813h-3.114L340.571,139.179z"/>
	<path fill="#252525" d="M351.225,139.179h3.35l1.278,4.897l1.494-4.934h2.827l1.513,4.97l1.314-4.934h3.295l-3.007,9.813h-2.953
		l-1.585-5.06l-1.62,5.06h-2.935L351.225,139.179z"/>
	<path fill="#252525" d="M369.388,144.005l-3.223-4.826h3.69l1.44,2.395l1.44-2.395h3.619l-3.205,4.808l3.277,4.934h-3.673
		l-1.513-2.503l-1.53,2.503h-3.602L369.388,144.005z"/>
	<path fill="#252525" d="M376.694,151.009l1.062-2.395c0.54,0.323,1.116,0.521,1.494,0.521c0.342,0,0.576-0.09,0.792-0.396
		l-3.816-9.562h3.583l1.944,5.87l1.836-5.87h3.512l-3.565,9.507c-0.846,2.269-1.765,3.169-3.709,3.169
		C378.621,151.854,377.595,151.513,376.694,151.009z"/>
	<path fill="#252525" d="M387.42,146.669l4.502-4.771h-4.34v-2.719h8.877v2.251l-4.52,4.771h4.52v2.719h-9.039V146.669z"/>
	<path fill="#252525" d="M138.616,160.227h3.367l5.365,12.693h-3.745l-0.918-2.251h-4.861l-0.9,2.251h-3.673L138.616,160.227z
		 M141.678,167.95l-1.405-3.583l-1.422,3.583H141.678z"/>
	<path fill="#252525" d="M148.209,160.316h6.464c1.585,0,2.701,0.396,3.439,1.134c0.504,0.505,0.811,1.171,0.811,2.035v0.036
		c0,1.458-0.828,2.322-1.945,2.809c1.531,0.504,2.503,1.368,2.503,3.079v0.036c0,2.16-1.765,3.475-4.771,3.475h-6.5V160.316z
		 M153.809,165.34c1.062,0,1.657-0.36,1.657-1.099v-0.036c0-0.684-0.54-1.08-1.585-1.08h-2.269v2.215H153.809z M154.313,170.111
		c1.062,0,1.674-0.414,1.674-1.152v-0.036c0-0.685-0.54-1.135-1.71-1.135h-2.665v2.323H154.313z"/>
	<path fill="#252525" d="M160.287,166.654v-0.036c0-3.673,2.827-6.554,6.644-6.554c2.575,0,4.231,1.08,5.348,2.628l-2.629,2.035
		c-0.72-0.9-1.548-1.477-2.755-1.477c-1.764,0-3.007,1.494-3.007,3.331v0.036c0,1.891,1.243,3.367,3.007,3.367
		c1.314,0,2.089-0.612,2.846-1.531l2.628,1.873c-1.188,1.639-2.79,2.845-5.581,2.845
		C163.186,173.172,160.287,170.417,160.287,166.654z"/>
	<path fill="#252525" d="M173.499,160.316h4.861c4.501,0,7.112,2.593,7.112,6.229v0.036c0,3.637-2.647,6.338-7.185,6.338h-4.789
		V160.316z M178.414,169.823c2.089,0,3.476-1.152,3.476-3.188V166.6c0-2.017-1.387-3.187-3.476-3.187h-1.422v6.41H178.414z"/>
	<path fill="#252525" d="M186.909,160.316h10.137v2.971h-6.68v1.908h6.05v2.755h-6.05v1.999h6.77v2.971h-10.227V160.316z"/>
	<path fill="#252525" d="M198.555,160.316h10.083v3.061h-6.59v2.143h5.96v2.899h-5.96v4.501h-3.493V160.316z"/>
	<path fill="#252525" d="M209.427,166.654v-0.036c0-3.673,2.881-6.554,6.788-6.554c2.215,0,3.781,0.684,5.113,1.836l-2.053,2.467
		c-0.9-0.756-1.801-1.188-3.043-1.188c-1.818,0-3.223,1.531-3.223,3.457v0.036c0,2.035,1.422,3.493,3.421,3.493
		c0.847,0,1.494-0.18,2.017-0.522v-1.53h-2.484v-2.557h5.798v5.672c-1.333,1.099-3.188,1.944-5.474,1.944
		C212.361,173.172,209.427,170.472,209.427,166.654z"/>
	<path fill="#252525" d="M223.341,160.316h3.493v4.717h4.483v-4.717h3.493v12.604h-3.493v-4.789h-4.483v4.789h-3.493V160.316z"/>
	<path fill="#252525" d="M236.751,160.316h3.511v12.604h-3.511V160.316z"/>
	<path fill="#252525" d="M241.16,171.012l2.251-2.125c0.612,0.738,1.188,1.17,1.962,1.17c0.883,0,1.44-0.594,1.44-1.764v-7.977
		h3.476v7.994c0,1.585-0.396,2.701-1.242,3.547c-0.829,0.828-2.017,1.278-3.457,1.278
		C243.393,173.136,242.042,172.218,241.16,171.012z"/>
	<path fill="#252525" d="M251.996,160.316h3.493v5.113l4.34-5.113h4.141l-4.771,5.419l4.934,7.185h-4.195l-3.169-4.682l-1.278,1.423
		v3.259h-3.493V160.316z"/>
	<path fill="#252525" d="M264.776,160.316h3.493v9.543h6.104v3.061h-9.597V160.316z"/>
	<path fill="#252525" d="M275.504,160.316h3.691l3.007,4.879l3.007-4.879h3.691v12.604h-3.476v-7.238l-3.223,4.934h-0.072
		l-3.205-4.897v7.202h-3.421V160.316z"/>
	<path fill="#252525" d="M290.768,160.316h3.26l5.186,6.662v-6.662h3.457v12.604h-3.062l-5.384-6.914v6.914h-3.457V160.316z"/>
	<path fill="#252525" d="M304.105,166.654v-0.036c0-3.619,2.917-6.554,6.807-6.554c3.889,0,6.77,2.898,6.77,6.518v0.036
		c0,3.619-2.917,6.554-6.806,6.554C306.986,173.172,304.105,170.273,304.105,166.654z M314.117,166.654v-0.036
		c0-1.818-1.314-3.403-3.241-3.403c-1.909,0-3.188,1.549-3.188,3.367v0.036c0,1.818,1.314,3.403,3.224,3.403
		C312.839,170.021,314.117,168.473,314.117,166.654z"/>
	<path fill="#252525" d="M319.136,160.316h5.401c3.188,0,5.239,1.639,5.239,4.429v0.036c0,2.971-2.286,4.538-5.419,4.538h-1.729
		v3.601h-3.493V160.316z M324.285,166.582c1.242,0,1.999-0.648,1.999-1.639v-0.036c0-1.08-0.757-1.656-2.017-1.656h-1.639v3.331
		H324.285z"/>
	<path fill="#252525" d="M341.062,172.056c-1.08,0.702-2.395,1.116-3.835,1.116c-3.89,0-6.771-2.898-6.771-6.518v-0.036
		c0-3.619,2.917-6.554,6.807-6.554c3.889,0,6.77,2.898,6.77,6.518v0.036c0,1.332-0.396,2.593-1.116,3.619l1.297,1.098l-1.765,1.963
		L341.062,172.056z M338.542,169.841l-1.747-1.494l1.765-1.98l1.711,1.548c0.144-0.378,0.216-0.792,0.216-1.224v-0.036
		c0-1.837-1.314-3.439-3.259-3.439c-1.909,0-3.188,1.585-3.188,3.403v0.036c0,1.818,1.297,3.421,3.224,3.421
		C337.731,170.075,338.164,169.985,338.542,169.841z"/>
	<path fill="#252525" d="M345.487,160.316h5.96c1.927,0,3.259,0.504,4.105,1.368c0.738,0.721,1.116,1.692,1.116,2.935v0.036
		c0,1.927-1.026,3.205-2.593,3.871l3.007,4.394h-4.033l-2.539-3.817h-0.035h-1.495v3.817h-3.493V160.316z M351.285,166.366
		c1.188,0,1.873-0.576,1.873-1.495v-0.035c0-0.991-0.721-1.495-1.891-1.495h-2.287v3.025H351.285z"/>
	<path fill="#252525" d="M357.115,171.048l1.944-2.323c1.242,0.99,2.629,1.513,4.087,1.513c0.937,0,1.44-0.324,1.44-0.864v-0.036
		c0-0.522-0.414-0.811-2.124-1.206c-2.684-0.612-4.754-1.369-4.754-3.962v-0.035c0-2.341,1.854-4.033,4.88-4.033
		c2.143,0,3.816,0.576,5.186,1.674l-1.747,2.467c-1.152-0.811-2.412-1.242-3.529-1.242c-0.846,0-1.26,0.36-1.26,0.811v0.035
		c0,0.576,0.432,0.829,2.179,1.225c2.898,0.631,4.699,1.566,4.699,3.926v0.035c0,2.575-2.034,4.105-5.096,4.105
		C360.788,173.136,358.663,172.434,357.115,171.048z"/>
	<path fill="#252525" d="M372.164,163.377h-3.781v-3.061h11.055v3.061h-3.78v9.543h-3.493V163.377z"/>
	<path fill="#252525" d="M380.442,167.393v-7.076h3.548v7.004c0,1.818,0.918,2.683,2.322,2.683s2.322-0.828,2.322-2.593v-7.094
		h3.548v6.985c0,4.069-2.323,5.853-5.906,5.853S380.442,171.335,380.442,167.393z"/>
	<path fill="#252525" d="M392.88,160.316h3.907l2.863,7.977l2.862-7.977h3.836l-5.114,12.693h-3.24L392.88,160.316z"/>
	<path fill="#252525" d="M406.182,160.316h3.691l2.196,7.292l2.431-7.328h3.007l2.432,7.328l2.196-7.292h3.619l-4.214,12.693h-3.042
		l-2.539-7.256l-2.521,7.256h-3.043L406.182,160.316z"/>
	<path fill="#252525" d="M429.905,166.51l-4.142-6.193h4.015l2.233,3.547l2.25-3.547h3.926l-4.142,6.157l4.321,6.446h-4.015
		l-2.413-3.799l-2.431,3.799h-3.925L429.905,166.51z"/>
	<path fill="#252525" d="M442.414,168.202l-4.789-7.886h3.979l2.593,4.591l2.61-4.591h3.907l-4.789,7.832v4.771h-3.512V168.202z"/>
	<path fill="#252525" d="M450.854,170.381l6.32-7.112h-6.104v-2.952H462v2.538l-6.32,7.112H462v2.953h-11.146V170.381z"/>
	<path fill="#252525" d="M136.078,187.485l-2.125,0.486l-0.666-2.701l3.69-1.044h2.539v12.693h-3.438V187.485z"/>
	<path fill="#252525" d="M140.973,194.291l4.718-3.601c1.17-0.919,1.62-1.513,1.62-2.27c0-0.792-0.558-1.278-1.404-1.278
		s-1.513,0.486-2.503,1.621l-2.358-1.963c1.351-1.746,2.683-2.7,5.132-2.7c2.755,0,4.645,1.638,4.645,4.015v0.036
		c0,2.017-1.044,3.061-2.916,4.411l-2.161,1.513h5.204v2.845h-9.976V194.291z"/>
	<path fill="#252525" d="M151.575,194.939l2.196-2.196c0.9,0.918,1.854,1.439,3.007,1.439c0.99,0,1.62-0.504,1.62-1.278v-0.035
		c0-0.811-0.738-1.297-2.052-1.297h-1.477l-0.505-1.818l2.899-2.611h-4.825v-2.826h9.11v2.503l-3.007,2.574
		c1.801,0.396,3.259,1.404,3.259,3.547v0.036c0,2.557-2.053,4.195-4.861,4.195C154.51,197.172,152.799,196.29,151.575,194.939z"/>
	<path fill="#252525" d="M169.07,194.472h-6.104l-0.576-2.467l6.536-7.778h3.528v7.634h1.603v2.611h-1.603v2.448h-3.385V194.472z
		 M169.07,191.878v-3.618l-3.007,3.618H169.07z"/>
	<path fill="#252525" d="M174.54,195.174l1.999-2.341c1.026,0.864,1.998,1.368,3.061,1.368c1.152,0,1.854-0.576,1.854-1.477v-0.036
		c0-0.9-0.756-1.458-1.854-1.458c-0.774,0-1.423,0.27-2.017,0.63l-2.07-1.152l0.359-6.392h8.427v2.881h-5.672l-0.107,1.908
		c0.576-0.27,1.17-0.45,2.017-0.45c2.269,0,4.321,1.261,4.321,3.997v0.036c0,2.809-2.143,4.483-5.204,4.483
		C177.421,197.172,175.854,196.397,174.54,195.174z"/>
	<path fill="#252525" d="M187.465,195.731c-0.937-0.937-1.549-2.358-1.549-4.717v-0.036c0-3.926,1.909-6.914,5.852-6.914
		c1.765,0,2.989,0.485,4.195,1.386l-1.639,2.467c-0.773-0.576-1.494-0.954-2.502-0.954c-1.477,0-2.215,1.099-2.377,2.683
		c0.666-0.504,1.477-0.972,2.719-0.972c2.215,0,4.159,1.404,4.159,3.925v0.036c0,2.827-2.251,4.537-5.006,4.537
		C189.535,197.172,188.365,196.632,187.465,195.731z M192.92,192.833v-0.036c0-0.9-0.684-1.621-1.782-1.621
		s-1.746,0.702-1.746,1.603v0.036c0,0.919,0.684,1.639,1.782,1.639S192.92,193.751,192.92,192.833z"/>
	<path fill="#252525" d="M203.123,187.251h-5.834v-2.935h9.705v2.629l-5.563,9.975h-3.854L203.123,187.251z"/>
	<path fill="#252525" d="M207.459,193.445v-0.036c0-1.531,0.811-2.449,2.161-3.025c-0.973-0.54-1.729-1.368-1.729-2.736v-0.036
		c0-2.017,1.926-3.511,4.753-3.511s4.754,1.494,4.754,3.511v0.036c0,1.368-0.757,2.196-1.729,2.736
		c1.278,0.595,2.16,1.44,2.16,3.007v0.036c0,2.251-2.16,3.709-5.186,3.709C209.62,197.136,207.459,195.642,207.459,193.445z
		 M214.463,193.103v-0.036c0-0.81-0.756-1.368-1.818-1.368s-1.818,0.559-1.818,1.368v0.036c0,0.757,0.648,1.423,1.818,1.423
		S214.463,193.859,214.463,193.103z M214.193,188.062v-0.036c0-0.702-0.595-1.333-1.549-1.333s-1.549,0.612-1.549,1.314v0.036
		c0,0.793,0.612,1.387,1.549,1.387S214.193,188.854,214.193,188.062z"/>
	<path fill="#252525" d="M218.814,195.678l1.639-2.413c0.864,0.685,1.692,1.009,2.701,1.009c1.44,0,2.215-1.009,2.377-2.629
		c-0.648,0.612-1.549,1.026-2.665,1.026c-2.449,0-4.231-1.513-4.231-3.979v-0.036c0-2.791,2.143-4.591,5.023-4.591
		c1.837,0,2.917,0.521,3.871,1.476c0.918,0.9,1.513,2.341,1.513,4.664v0.036c0,4.123-2.053,6.932-5.834,6.932
		C221.336,197.172,219.967,196.578,218.814,195.678z M225.585,188.529v-0.036c0-0.972-0.702-1.71-1.801-1.71
		s-1.765,0.72-1.765,1.692v0.036c0,0.954,0.702,1.656,1.801,1.656S225.585,189.447,225.585,188.529z"/>
	<path fill="#252525" d="M231.343,194.489h-1.404v-2.898h1.908l0.343-2.018h-1.657v-2.898h2.161l0.396-2.358h2.611l-0.414,2.358
		h2.286l0.396-2.358h2.61l-0.396,2.358h1.404v2.898h-1.908l-0.343,2.018h1.657v2.898h-2.144l-0.432,2.431h-2.61l0.432-2.431h-2.287
		l-0.414,2.431h-2.61L231.343,194.489z M236.78,191.662l0.36-2.16h-2.395l-0.378,2.16H236.78z"/>
	<path fill="#252525" d="M247.076,196.884c-1.765-0.18-3.512-0.811-4.861-1.782l1.62-2.395c1.152,0.81,2.232,1.296,3.349,1.476
		v-2.16c-2.898-0.666-4.375-1.656-4.375-3.889v-0.036c0-2.125,1.549-3.602,4.304-3.8v-1.026h1.872v1.081
		c1.477,0.162,2.719,0.666,3.799,1.404l-1.476,2.412c-0.738-0.521-1.603-0.882-2.413-1.08v2.089
		c2.863,0.666,4.304,1.692,4.304,3.925v0.036c0,2.196-1.693,3.547-4.25,3.781v1.765h-1.872V196.884z M247.202,186.927
		c-0.883,0.072-1.225,0.433-1.225,0.9v0.036c0,0.468,0.252,0.738,1.225,1.008V186.927z M250.083,193.373v-0.036
		c0-0.486-0.271-0.756-1.206-1.026v1.98C249.705,194.201,250.083,193.896,250.083,193.373z"/>
	<path fill="#252525" d="M254.022,187.558v-0.036c0-1.854,1.278-3.386,3.259-3.386c1.962,0,3.24,1.531,3.24,3.367v0.036
		c0,1.854-1.313,3.385-3.259,3.385C255.318,190.924,254.022,189.412,254.022,187.558z M265.131,184.316h2.432l-9.724,12.604h-2.431
		L265.131,184.316z M258.325,187.558v-0.036c0-0.793-0.45-1.405-1.062-1.405c-0.63,0-1.044,0.595-1.044,1.387v0.036
		c0,0.811,0.468,1.404,1.062,1.404C257.894,188.943,258.325,188.35,258.325,187.558z M262.448,193.733v-0.036
		c0-1.854,1.278-3.386,3.259-3.386c1.963,0,3.241,1.513,3.241,3.367v0.036c0,1.837-1.314,3.385-3.259,3.385
		S262.448,195.569,262.448,193.733z M266.752,193.733v-0.036c0-0.811-0.45-1.404-1.062-1.404c-0.648,0-1.044,0.576-1.044,1.386
		v0.036c0,0.792,0.468,1.404,1.062,1.404C266.319,195.119,266.752,194.525,266.752,193.733z"/>
	<path fill="#252525" d="M270.023,191.969c0-4.34,3.439-7.904,7.977-7.904c4.466,0,7.761,3.312,7.761,7.004
		c0,3.259-1.873,4.825-3.835,4.825c-1.513,0-2.341-0.63-2.773-1.368c-0.684,0.792-1.53,1.332-2.646,1.332
		c-1.873,0-3.295-1.422-3.295-3.619c0-2.574,1.836-4.681,3.979-4.681c1.17,0,1.944,0.594,2.412,1.332l0.216-1.099l2.791,0.433
		l-0.828,4.646c-0.036,0.27-0.072,0.521-0.072,0.792c0,0.594,0.433,1.062,1.171,1.062c1.17,0,2.124-1.261,2.124-3.655
		c0-3.331-2.898-6.284-7.004-6.284c-4.195,0-7.22,3.205-7.22,7.185c0,4.015,2.988,7.147,7.274,7.147
		c1.782,0,3.061-0.414,4.411-1.206l0.359,0.576c-1.386,0.847-2.898,1.351-4.771,1.351
		C273.409,199.837,270.023,196.326,270.023,191.969z M279.135,191.356c0-0.847-0.559-1.368-1.314-1.368
		c-0.973,0-1.729,0.899-1.729,2.034c0,0.9,0.558,1.404,1.314,1.404C278.36,193.427,279.135,192.509,279.135,191.356z"/>
	<path fill="#252525" d="M287.196,185.847v-1.53h3.889v1.53l-1.044,6.968h-1.801L287.196,185.847z M287.358,193.859h3.564v3.061
		h-3.564V193.859z"/>
	<path fill="#252525" d="M292.487,191.752c0-3.654,1.891-5.941,5.258-7.706l1.423,2.125c-2.323,1.603-3.331,3.223-3.331,5.581
		c0,2.359,1.008,3.979,3.331,5.582l-1.423,2.125C294.378,197.694,292.487,195.407,292.487,191.752z"/>
	<path fill="#252525" d="M300.12,193.409h3.564v3.511h-3.564V193.409z"/>
	<path fill="#252525" d="M304.457,198.576c1.207-0.144,1.837-0.72,1.801-1.692h-1.386v-3.511h3.564v2.862
		c0,2.665-1.458,3.583-3.709,3.655L304.457,198.576z"/>
	<path fill="#252525" d="M309.3,198.612c1.206-0.144,1.836-0.72,1.8-1.692h-1.386v-3.511h3.564v2.862
		c0,2.665-1.458,3.583-3.709,3.655L309.3,198.612z M309.714,187.179h3.564v3.512h-3.564V187.179z"/>
	<path fill="#252525" d="M314.646,187.179h3.564v3.512h-3.564V187.179z M314.646,193.409h3.564v3.511h-3.564V193.409z"/>
	<path fill="#252525" d="M321.702,189.808l0.144-0.162c2.089-0.18,2.827-0.666,2.827-1.44v-0.018c0-0.612-0.486-0.99-1.351-0.99
		c-0.846,0-1.782,0.432-2.629,1.188l-1.8-2.377c1.098-1.099,2.593-1.891,4.663-1.891c2.646,0,4.501,1.44,4.501,3.781v0.036
		c0,2.269-1.512,3.24-3.511,3.727l-0.216,1.152h-2.179L321.702,189.808z M321.414,193.859h3.547v3.061h-3.547V193.859z"/>
	<path fill="#252525" d="M328.487,189.52c1.206-0.126,1.801-0.72,1.765-1.692h-1.333v-3.511h3.512v2.862
		c0,2.629-1.405,3.583-3.655,3.655L328.487,189.52z M333.276,189.52c1.206-0.126,1.801-0.72,1.765-1.692h-1.351v-3.511h3.512v2.862
		c0,2.629-1.405,3.583-3.638,3.655L333.276,189.52z"/>
	<path fill="#252525" d="M338.099,197.334c2.323-1.603,3.331-3.223,3.331-5.582c0-2.358-1.008-3.979-3.331-5.581l1.423-2.125
		c3.367,1.765,5.258,4.052,5.258,7.706c0,3.655-1.891,5.942-5.258,7.707L338.099,197.334z"/>
</g>
<line fill="none" stroke="#E5E5E5" stroke-miterlimit="10" x1="-1" y1="100.5" x2="462" y2="100.5"/>
</svg>
