<?xml version="1.0" encoding="utf-8"?>
<!-- Generator: Adobe Illustrator 17.0.2, SVG Export Plug-In . SVG Version: 6.00 Build 0)  -->
<!DOCTYPE svg PUBLIC "-//W3C//DTD SVG 1.1//EN" "http://www.w3.org/Graphics/SVG/1.1/DTD/svg11.dtd">
<svg version="1.1" id="Layer_1" xmlns="http://www.w3.org/2000/svg" xmlns:xlink="http://www.w3.org/1999/xlink" x="0px" y="0px"
	 width="1140px" height="720px" viewBox="0 0 1140 720" enable-background="new 0 0 1140 720" xml:space="preserve">
<path fill="#a1a1a1" d="M80.359,106.771c-1.571-5.209,1.382-10.711,6.598-12.281c5.209-1.569,10.711,1.375,12.28,6.592
	c5.799,18.561,20.682,29.401,41.586,29.634c0.584,0,1.181-0.012,1.738-0.027c21.027-0.951,34.618-11.21,40.443-29.607
	c1.571-5.21,7.064-8.161,12.281-6.592c5.212,1.57,8.161,7.065,6.592,12.281c-7.624,26.236-30.7,43.065-58.752,43.63
	c-0.771,0.018-1.536,0.031-2.302,0.031c-0.192,0.004-0.382,0.004-0.573,0.004C112.109,150.435,88.168,133.369,80.359,106.771"/>
<path fill="#a1a1a1" d="M201.877,202.002c1.571,5.21-1.382,10.712-6.598,12.281c-5.208,1.57-10.711-1.375-12.28-6.592
	c-5.8-18.561-20.683-29.401-41.586-29.634c-0.584,0-1.181,0.012-1.739,0.027c-21.026,0.952-34.617,11.21-40.443,29.607
	c-1.571,5.21-7.065,8.162-12.281,6.592c-5.212-1.569-8.161-7.064-6.593-12.281c7.625-26.236,30.701-43.063,58.753-43.63
	c0.771-0.018,1.536-0.03,2.303-0.03c0.192-0.004,0.382-0.004,0.573-0.004C170.125,158.339,194.067,175.405,201.877,202.002"/>
<path fill="#a1a1a1" d="M141.118,112.049c10.602,0,19.196-8.595,19.196-19.197c0-10.603-8.594-19.198-19.196-19.198
	c-10.603,0-19.197,8.595-19.197,19.198C121.921,103.454,130.515,112.049,141.118,112.049"/>
<path fill="#a1a1a1" d="M343.118,145.583V59.754c0-5.186,4.203-9.389,9.39-9.389l0,0c5.185,0,9.39,4.203,9.39,9.389l0,0v85.829
	c0,5.187-4.204,9.392-9.39,9.392l0,0c-2.592-0.002-4.94-1.052-6.639-2.751l0,0C344.17,150.524,343.118,148.176,343.118,145.583
	L343.118,145.583z"/>
<path fill="#a1a1a1" d="M780.361,199.684V88.653c0-6.709,5.437-12.146,12.147-12.146l0,0c6.707,0,12.148,5.437,12.148,12.146l0,0
	v111.031c0,6.71-5.439,12.149-12.148,12.149l0,0c-3.353-0.003-6.391-1.361-8.589-3.558l0,0
	C781.722,206.075,780.361,203.038,780.361,199.684L780.361,199.684z"/>
<path fill="#a1a1a1" d="M940.664,410.834l78.51-78.51c4.744-4.744,12.433-4.744,17.178,0.001l0,0
	c4.742,4.743,4.745,12.434,0.001,17.178l0,0l-78.51,78.51c-4.745,4.744-12.436,4.745-17.18,0.001l0,0
	c-2.369-2.373-3.556-5.482-3.557-8.589l0,0C937.107,416.316,938.292,413.206,940.664,410.834L940.664,410.834z"/>
<path fill="#a1a1a1" d="M370.698,145.583V70.495c0-5.186,4.201-9.389,9.39-9.389l0,0c5.185,0,9.39,4.203,9.39,9.389l0,0v75.088
	c0,5.187-4.204,9.392-9.39,9.392l0,0c-2.594-0.002-4.94-1.052-6.641-2.751l0,0C371.749,150.524,370.698,148.176,370.698,145.583
	L370.698,145.583z"/>
<path fill="#a1a1a1" d="M315.77,145.583V77.061c0-5.186,4.201-9.389,9.389-9.389l0,0c5.186,0,9.39,4.203,9.39,9.389l0,0v68.522
	c0,5.187-4.204,9.392-9.39,9.392l0,0c-2.592-0.002-4.94-1.052-6.639-2.751l0,0C316.82,150.524,315.77,148.176,315.77,145.583
	L315.77,145.583z"/>
<path fill="#a1a1a1" d="M288.69,145.583V97.857c0-5.186,4.201-9.389,9.39-9.389l0,0c5.185,0,9.39,4.203,9.39,9.389l0,0v47.726
	c0,5.187-4.204,9.392-9.39,9.392l0,0c-2.594-0.002-4.94-1.052-6.639-2.751l0,0C289.74,150.524,288.69,148.176,288.69,145.583
	L288.69,145.583z"/>
<path fill="#a1a1a1" d="M422.318,145.509c-6.075-0.917-11.734,3.254-12.656,9.321c-3.564,21.467-17.096,35.091-40.417,39.512
	c-0.62,0.107-0.12,22.015,0.739,21.871c31.226-5.113,57.335-27.541,61.656-58.048C432.558,152.093,428.387,146.43,422.318,145.509z"
	/>
<rect x="334" y="194.213" fill="#a1a1a1" width="36" height="22"/>
<circle fill="#a1a1a1" cx="333.25" cy="205.213" r="11"/>
<path fill="#a1a1a1" d="M575.608,215.504c39.767,0,72.002-32.237,72.002-71.998c0-39.765-32.234-72.002-72.002-72.002
	c-39.764,0-71.999,32.237-71.999,72.002C503.609,183.267,535.843,215.504,575.608,215.504"/>
<path fill="#FFFFFF" d="M621.355,132.655h-32.841V97.953c0-4.014-3.253-7.266-7.267-7.266s-7.267,3.253-7.267,7.266v34.702l0,0
	v14.535h47.376c4.013,0,7.266-3.254,7.266-7.266C628.622,135.908,625.369,132.655,621.355,132.655z"/>
<path fill="#a1a1a1" d="M998.934,414.183h-42.947v-45.381c0-5.249-4.254-9.502-9.503-9.502c-5.25,0-9.504,4.254-9.504,9.502v45.381
	l0,0v19.007h61.955c5.249,0,9.502-4.255,9.502-9.502C1008.436,418.436,1004.182,414.183,998.934,414.183z"/>
<g>
	<g>
		<path fill="#a1a1a1" d="M1069.733,109.055c1.622-5.381-1.428-11.062-6.816-12.686c-5.381-1.621-11.062,1.42-12.681,6.81
			c-5.992,19.171-21.365,30.369-42.957,30.608c-0.602,0-1.22-0.012-1.794-0.027c-21.721-0.982-35.76-11.578-41.777-30.581
			c-1.62-5.379-7.296-8.431-12.684-6.81c-5.382,1.624-8.43,7.3-6.809,12.686c7.874,27.098,31.708,44.484,60.687,45.066
			c0.797,0.018,1.587,0.032,2.376,0.032c0.197,0.005,0.395,0.005,0.593,0.005C1036.937,154.158,1061.668,136.53,1069.733,109.055"/>
	</g>
	<g>
		<path fill="#a1a1a1" d="M946.529,165.367l17.237-27.059c2.651-4.156,8.165-5.378,12.319-2.727l0,0
			c4.158,2.645,5.379,8.159,2.734,12.316l0,0l-17.244,27.059c-2.646,4.155-8.159,5.376-12.314,2.728l0,0
			c-2.079-1.322-3.423-3.364-3.918-5.593l0,0C944.849,169.86,945.206,167.443,946.529,165.367L946.529,165.367z"/>
	</g>
	<g>
		<path fill="#a1a1a1" d="M1040.539,149.172l17.237,27.059c2.649,4.158,8.164,5.378,12.319,2.727l0,0
			c4.158-2.645,5.378-8.158,2.733-12.316l0,0l-17.243-27.057c-2.646-4.156-8.159-5.378-12.316-2.728l0,0
			c-2.077,1.32-3.423,3.363-3.916,5.593l0,0C1038.859,144.678,1039.214,147.096,1040.539,149.172L1040.539,149.172z"/>
	</g>
	<g>
		<path fill="#a1a1a1" d="M942.906,186.802c-1.645,0-3.252-0.665-4.41-1.827l0,0c-1.164-1.164-1.83-2.768-1.83-4.413l0,0V97.784
			c0-1.645,0.666-3.249,1.827-4.413l0,0c1.161-1.162,2.768-1.827,4.413-1.827l0,0h131.034c1.639,0,3.247,0.666,4.408,1.827l0,0
			c1.162,1.164,1.83,2.768,1.83,4.413l0,0v82.779c0,1.645-0.668,3.249-1.83,4.413l0,0c-1.162,1.162-2.769,1.827-4.408,1.827l0,0
			H942.906L942.906,186.802z M1073.94,180.563v-6.24V180.563L1073.94,180.563z M949.145,174.323h118.551v-70.3H949.145V174.323
			L949.145,174.323z"/>
	</g>
</g>
<path fill="#a1a1a1" d="M736.994,132.022h111.031c6.709,0,12.146,5.437,12.146,12.147l0,0c0,6.707-5.438,12.148-12.146,12.148l0,0
	H736.994c-6.71,0-12.149-5.439-12.149-12.148l0,0c0.003-3.353,1.361-6.391,3.558-8.589l0,0
	C730.602,133.382,733.64,132.022,736.994,132.022L736.994,132.022z"/>
<path fill="#a1a1a1" d="M293.268,345.428h52.482c3.171,0,5.741,2.57,5.741,5.742l0,0c0,3.17-2.57,5.742-5.741,5.742l0,0h-52.482
	c-3.172,0-5.743-2.571-5.743-5.742l0,0c0.001-1.585,0.644-3.021,1.682-4.06l0,0C290.247,346.071,291.682,345.428,293.268,345.428
	L293.268,345.428z"/>
<path fill="#a1a1a1" d="M156.321,341.457c-2.577,1.943-3.094,5.612-1.147,8.194c1.944,2.577,5.61,3.096,8.19,1.149
	c9.287-6.854,20.215-6.826,30.305,0.392c0.282,0.205,0.563,0.42,0.824,0.622c9.735,7.83,12.645,17.507,8.983,28.359
	c-1.073,3.046,0.522,6.385,3.57,7.463c3.047,1.076,6.385-0.521,7.463-3.57c5.55-15.236,0.399-31.385-12.835-41.493
	c-0.361-0.28-0.723-0.553-1.09-0.821c-0.091-0.069-0.181-0.137-0.273-0.203C186.835,331.682,169.388,331.458,156.321,341.457"/>
<path fill="#a1a1a1" d="M134.107,341.457c2.577,1.943,3.094,5.612,1.147,8.194c-1.944,2.577-5.61,3.096-8.19,1.149
	c-9.287-6.854-20.215-6.826-30.305,0.392c-0.282,0.205-0.564,0.42-0.825,0.622c-9.735,7.83-12.645,17.507-8.983,28.359
	c1.073,3.046-0.522,6.385-3.57,7.463c-3.047,1.076-6.385-0.521-7.463-3.57c-5.55-15.236-0.399-31.385,12.835-41.493
	c0.361-0.28,0.723-0.553,1.09-0.821c0.091-0.069,0.181-0.137,0.273-0.203C103.593,331.682,121.04,331.458,134.107,341.457"/>
<circle fill="#a1a1a1" cx="117.042" cy="378.338" r="8.958"/>
<circle fill="#a1a1a1" cx="144.042" cy="576.338" r="17.958"/>
<circle fill="#a1a1a1" cx="170.042" cy="378.338" r="8.958"/>
<path fill="#a1a1a1" d="M370.321,341.457c-2.577,1.943-3.094,5.612-1.147,8.194c1.944,2.577,5.611,3.096,8.19,1.149
	c9.287-6.854,20.215-6.826,30.305,0.392c0.282,0.205,0.564,0.42,0.824,0.622c9.735,7.83,12.645,17.507,8.983,28.359
	c-1.073,3.046,0.522,6.385,3.57,7.463c3.047,1.076,6.385-0.521,7.463-3.57c5.55-15.236,0.399-31.385-12.835-41.493
	c-0.361-0.28-0.723-0.553-1.09-0.821c-0.091-0.069-0.181-0.137-0.273-0.203C400.835,331.682,383.388,331.458,370.321,341.457"/>
<circle fill="#a1a1a1" cx="331.042" cy="378.338" r="8.958"/>
<circle fill="#a1a1a1" cx="969.042" cy="597.338" r="13.958"/>
<circle fill="#a1a1a1" cx="1008.042" cy="597.338" r="13.958"/>
<circle fill="#a1a1a1" cx="1048.042" cy="597.338" r="13.958"/>
<circle fill="#a1a1a1" cx="969.042" cy="634.338" r="13.958"/>
<circle fill="#a1a1a1" cx="1008.042" cy="634.338" r="13.958"/>
<circle fill="#a1a1a1" cx="1048.042" cy="634.338" r="13.958"/>
<circle fill="#a1a1a1" cx="384.042" cy="378.338" r="8.958"/>
<path fill="#a1a1a1" d="M509.268,345.428h52.482c3.171,0,5.741,2.57,5.741,5.742l0,0c0,3.17-2.57,5.742-5.741,5.742l0,0h-52.482
	c-3.172,0-5.743-2.571-5.743-5.742l0,0c0.001-1.585,0.644-3.021,1.682-4.06l0,0C506.247,346.071,507.682,345.428,509.268,345.428
	L509.268,345.428z"/>
<path fill="#a1a1a1" d="M649.168,350.87c0.921-3.094-0.839-6.354-3.939-7.276c-3.094-0.921-6.353,0.837-7.274,3.935
	c-3.408,11.027-12.221,17.489-24.626,17.666c-0.348,0.003-0.703-0.004-1.033-0.012c-12.482-0.526-20.567-6.589-24.058-17.498
	c-0.944-3.088-4.208-4.83-7.301-3.889c-3.09,0.942-4.83,4.207-3.889,7.301c4.573,15.558,18.301,25.5,34.952,25.783
	c0.457,0.011,0.91,0.016,1.365,0.014c0.114,0.001,0.227,0.002,0.341,0.002C630.406,376.844,644.583,366.672,649.168,350.87"/>
<circle fill="#a1a1a1" cx="547.042" cy="378.338" r="8.958"/>
<circle fill="#a1a1a1" cx="612.042" cy="378.338" r="8.958"/>
<path fill="#a1a1a1" d="M808.007,432.137c-6.114,1.843-12.573-1.622-14.415-7.745c-1.841-6.115,1.614-12.571,7.738-14.414
	c21.787-6.807,34.511-24.278,34.785-48.814c0-0.685-0.014-1.386-0.032-2.04c-1.116-24.682-13.159-40.635-34.753-47.473
	c-6.116-1.844-9.579-8.292-7.738-14.416c1.843-6.117,8.293-9.579,14.415-7.738c30.797,8.949,50.55,36.036,51.213,68.965
	c0.021,0.906,0.036,1.803,0.036,2.702c0.005,0.225,0.005,0.448,0.005,0.673C859.261,394.867,839.23,422.971,808.007,432.137"/>
<path fill="#a1a1a1" d="M1078.499,556.989c1.843,6.114-1.622,12.573-7.745,14.415c-6.115,1.841-12.571-1.614-14.414-7.738
	c-6.807-21.787-24.278-34.511-48.814-34.785c-0.685,0-1.386,0.014-2.04,0.032c-24.682,1.116-40.635,13.159-47.473,34.753
	c-1.844,6.116-8.292,9.579-14.416,7.738c-6.118-1.843-9.579-8.293-7.738-14.415c8.949-30.797,36.036-50.55,68.965-51.213
	c0.906-0.021,1.803-0.036,2.702-0.036c0.225-0.005,0.448-0.005,0.673-0.005C1041.229,505.735,1069.333,525.767,1078.499,556.989"/>
<path fill="#a1a1a1" d="M769.684,407c-3.959,1.194-8.141-1.05-9.335-5.015c-1.192-3.96,1.046-8.141,5.011-9.335
	c14.108-4.408,22.347-15.721,22.525-31.609c0-0.443-0.009-0.898-0.021-1.321c-0.722-15.982-8.521-26.313-22.504-30.741
	c-3.96-1.194-6.203-5.369-5.011-9.334c1.194-3.961,5.371-6.203,9.335-5.011c19.942,5.795,32.732,23.335,33.162,44.657
	c0.014,0.587,0.023,1.167,0.023,1.749c0.003,0.146,0.003,0.291,0.003,0.437C802.872,382.867,789.902,401.063,769.684,407"/>
<path fill="#a1a1a1" d="M733.672,388.491c-2.373,0.716-4.879-0.628-5.594-3.005c-0.715-2.373,0.626-4.879,3.003-5.594
	c8.454-2.641,13.391-9.42,13.498-18.941c0-0.266-0.006-0.538-0.013-0.792c-0.433-9.577-5.106-15.767-13.485-18.42
	c-2.373-0.716-3.717-3.218-3.003-5.594c0.715-2.374,3.218-3.717,5.594-3.003c11.949,3.473,19.615,13.983,19.871,26.76
	c0.008,0.351,0.015,0.699,0.015,1.048c0.002,0.087,0.002,0.174,0.002,0.262C753.559,374.03,745.786,384.934,733.672,388.491"/>
<path fill="#a1a1a1" d="M105.385,541.303c3.068-0.925,6.309,0.815,7.234,3.89c0.925,3.068-0.808,6.309-3.881,7.232
	c-10.938,3.418-17.323,12.187-17.46,24.504c0,0.342,0.007,0.694,0.016,1.022c0.559,12.391,6.606,20.396,17.445,23.828
	c3.068,0.925,4.807,4.164,3.881,7.237c-0.925,3.068-4.162,4.806-7.234,3.883c-15.457-4.492-25.373-18.087-25.705-34.616
	c-0.009-0.456-0.018-0.905-0.018-1.354c-0.002-0.115-0.002-0.224-0.002-0.339C79.659,560.012,89.715,545.905,105.385,541.303"/>
<path fill="#a1a1a1" d="M184.269,612.899c-3.068,0.925-6.309-0.815-7.234-3.888c-0.925-3.068,0.808-6.311,3.881-7.232
	c10.938-3.418,17.323-12.187,17.46-24.504c0-0.344-0.007-0.696-0.014-1.024c-0.564-12.389-6.608-20.394-17.447-23.826
	c-3.068-0.928-4.807-4.164-3.881-7.237c0.925-3.07,4.162-4.809,7.234-3.885c15.457,4.494,25.371,18.089,25.705,34.616
	c0.011,0.456,0.018,0.907,0.018,1.357c0.002,0.112,0.002,0.225,0.002,0.337C209.995,594.192,199.94,608.299,184.269,612.899"/>
<path fill="#a1a1a1" d="M180.624,532.678c0.925,3.068-0.813,6.311-3.888,7.237c-3.066,0.923-6.309-0.813-7.234-3.886
	c-3.416-10.934-12.185-17.321-24.502-17.458c-0.341,0-0.696,0.007-1.022,0.016c-12.391,0.56-20.396,6.603-23.83,17.443
	c-0.926,3.072-4.162,4.809-7.234,3.886c-3.07-0.925-4.809-4.164-3.883-7.237c4.49-15.457,18.087-25.371,34.616-25.704
	c0.454-0.011,0.903-0.019,1.354-0.019c0.115-0.001,0.225-0.001,0.339-0.001C161.919,506.953,176.024,517.009,180.624,532.678"/>
<path fill="#a1a1a1" d="M180.624,622.77c0.925-3.068-0.813-6.311-3.888-7.237c-3.066-0.923-6.309,0.813-7.234,3.885
	c-3.416,10.934-12.185,17.321-24.502,17.458c-0.341,0-0.696-0.007-1.022-0.016c-12.391-0.559-20.396-6.606-23.83-17.443
	c-0.926-3.072-4.162-4.809-7.234-3.885c-3.07,0.925-4.809,4.164-3.883,7.237c4.49,15.457,18.087,25.373,34.616,25.705
	c0.454,0.011,0.903,0.018,1.354,0.018c0.115,0.002,0.225,0.002,0.339,0.002C161.919,648.496,176.024,638.44,180.624,622.77"/>
<path fill="#a1a1a1" d="M305.065,519.642c-1.551-4.496,0.836-9.404,5.342-10.955c4.495-1.551,9.399,0.83,10.952,5.334
	c5.712,16.014,19.088,24.966,37.354,24.447c0.512-0.021,1.034-0.052,1.52-0.083c18.338-1.56,29.852-10.994,34.305-27.267
	c1.191-4.607,5.888-7.374,10.499-6.183c4.607,1.19,7.374,5.889,6.186,10.499c-5.752,23.185-25.328,38.683-49.814,40.151
	c-0.674,0.043-1.341,0.081-2.01,0.105c-0.167,0.014-0.333,0.019-0.5,0.024C334.316,556.689,312.806,542.61,305.065,519.642"/>
<path fill="#a1a1a1" d="M309.44,635.59c-1.191,4.604,1.577,9.31,6.19,10.499c4.604,1.191,9.306-1.572,10.497-6.183
	c4.423-16.416,17.052-26.4,35.303-27.329c0.51-0.021,1.031-0.031,1.52-0.038c18.404,0.1,30.63,8.594,36.359,24.464
	c1.55,4.499,6.452,6.886,10.954,5.333c4.499-1.553,6.886-6.455,5.335-10.956c-7.567-22.656-28.313-36.556-52.839-36.08
	c-0.674,0.012-1.343,0.029-2.013,0.052c-0.167,0.005-0.333,0.009-0.5,0.019C335.664,596.344,315.34,612.081,309.44,635.59"/>
<path fill="#a1a1a1" d="M299.563,524.196c-4.607-1.191-9.311,1.579-10.502,6.192c-1.189,4.605,1.572,9.309,6.183,10.498
	c16.418,4.423,26.405,17.051,27.331,35.303c0.021,0.512,0.029,1.031,0.036,1.517c-0.1,18.402-8.594,30.635-24.459,36.356
	c-4.502,1.555-6.888,6.457-5.338,10.961c1.553,4.497,6.457,6.884,10.959,5.331c22.656-7.567,36.556-28.308,36.078-52.839
	c-0.012-0.676-0.026-1.339-0.05-2.01c-0.005-0.167-0.012-0.333-0.019-0.5C338.808,550.423,323.069,530.097,299.563,524.196"/>
<path fill="#a1a1a1" d="M422.075,627.973c4.606,1.193,9.311-1.577,10.504-6.188c1.189-4.607-1.574-9.308-6.183-10.499
	c-16.421-4.421-26.405-17.049-27.332-35.304c-0.022-0.51-0.031-1.034-0.036-1.52c0.102-18.402,8.591-30.63,24.461-36.356
	c4.497-1.554,6.884-6.455,5.335-10.959c-1.555-4.496-6.457-6.882-10.959-5.33c-22.656,7.567-36.556,28.313-36.078,52.839
	c0.009,0.674,0.026,1.341,0.05,2.012c0.005,0.167,0.012,0.331,0.017,0.5C382.832,601.749,398.568,622.075,422.075,627.973"/>
<path fill="#a1a1a1" d="M548.233,585.915l-35.188,0c-5.404-0.001-9.784-4.382-9.785-9.785l0,0c-0.001-5.404,4.381-9.786,9.785-9.785
	l0,0l35.188,0c5.404-0.001,9.785,4.38,9.785,9.785l0,0c-0.001,2.703-1.095,5.147-2.867,6.919l0,0
	C553.38,584.819,550.935,585.915,548.233,585.915L548.233,585.915z"/>
<path fill="#a1a1a1" d="M563.227,602.707l-24.882,24.882c-3.822,3.82-10.017,3.82-13.838,0l0,0c-3.822-3.82-3.822-10.018,0-13.838
	l0,0l24.882-24.882c3.82-3.822,10.016-3.822,13.838,0l0,0c1.91,1.912,2.865,4.414,2.865,6.92l0,0
	C566.091,598.293,565.136,600.797,563.227,602.707L563.227,602.707z"/>
<path fill="#a1a1a1" d="M585.702,603.979l0,35.188c-0.001,5.404-4.382,9.784-9.785,9.785l0,0c-5.404,0.001-9.786-4.381-9.785-9.785
	l0,0l0-35.188c-0.001-5.404,4.38-9.785,9.785-9.785l0,0c2.703,0.001,5.147,1.095,6.919,2.867l0,0
	C584.607,598.832,585.702,601.278,585.702,603.979L585.702,603.979z"/>
<path fill="#a1a1a1" d="M602.494,588.986l24.882,24.882c3.82,3.822,3.82,10.017,0,13.838l0,0c-3.82,3.822-10.018,3.822-13.838,0l0,0
	l-24.882-24.882c-3.822-3.82-3.822-10.016,0-13.838l0,0c1.912-1.91,4.414-2.865,6.92-2.865l0,0
	C598.08,586.121,600.584,587.076,602.494,588.986L602.494,588.986z"/>
<path fill="#a1a1a1" d="M603.767,566.511l35.188,0c5.404,0.001,9.784,4.382,9.785,9.785l0,0c0.001,5.404-4.381,9.786-9.785,9.785
	l0,0l-35.188,0c-5.404,0.001-9.785-4.38-9.785-9.785l0,0c0.001-2.703,1.095-5.147,2.867-6.919l0,0
	C598.62,567.606,601.065,566.511,603.767,566.511L603.767,566.511z"/>
<path fill="#a1a1a1" d="M588.773,549.718l24.882-24.882c3.822-3.82,10.017-3.82,13.838,0l0,0c3.822,3.82,3.822,10.018,0,13.838l0,0
	l-24.882,24.882c-3.82,3.822-10.016,3.822-13.838,0l0,0c-1.91-1.912-2.865-4.414-2.865-6.92l0,0
	C585.909,554.132,586.864,551.628,588.773,549.718L588.773,549.718z"/>
<path fill="#a1a1a1" d="M566.298,548.446l0-35.188c0.001-5.404,4.382-9.784,9.785-9.785l0,0c5.404-0.001,9.786,4.381,9.785,9.785
	l0,0l0,35.188c0.001,5.404-4.38,9.785-9.785,9.785l0,0c-2.703-0.001-5.147-1.095-6.919-2.867l0,0
	C567.393,553.593,566.298,551.147,566.298,548.446L566.298,548.446z"/>
<path fill="#a1a1a1" d="M549.506,563.439l-24.882-24.882c-3.82-3.822-3.82-10.017,0-13.838l0,0c3.82-3.822,10.018-3.822,13.838,0
	l0,0l24.882,24.882c3.822,3.82,3.822,10.016,0,13.838l0,0c-1.912,1.91-4.414,2.865-6.92,2.865l0,0
	C553.92,566.304,551.416,565.349,549.506,563.439L549.506,563.439z"/>
<path fill="#a1a1a1" d="M815.781,532.998l35.401,6.528c8.338,1.249,14.099,9.016,12.85,17.364l0,0
	c-1.242,8.343-9.019,14.091-17.364,12.852l0,0l-35.396-6.533c-8.343-1.244-14.096-9.021-12.85-17.361l0,0
	c0.623-4.172,2.877-7.693,6.02-10.022l0,0C807.587,533.504,811.614,532.375,815.781,532.998L815.781,532.998z"/>
<path fill="#a1a1a1" d="M746.455,555.599l23.093,27.617c5.622,6.279,5.099,15.935-1.189,21.566l0,0
	c-6.276,5.629-15.93,5.097-21.569-1.184l0,0l-23.086-27.615c-5.629-6.281-5.099-15.94,1.184-21.566l0,0
	c3.141-2.817,7.12-4.087,11.025-3.874l0,0C739.819,550.756,743.64,552.461,746.455,555.599L746.455,555.599z"/>
<path fill="#a1a1a1" d="M756.111,621.329l28.574-21.897c6.511-5.351,16.139-4.416,21.499,2.105l0,0
	c5.358,6.509,4.406,16.136-2.103,21.499l0,0l-28.576,21.89c-6.513,5.358-16.144,4.413-21.497-2.103l0,0
	c-2.678-3.256-3.783-7.29-3.402-11.183l0,0C750.995,627.749,752.855,624.004,756.111,621.329L756.111,621.329z"/>
<path fill="#a1a1a1" d="M798.281,521.302l-9.704,34.661c-1.999,8.194-10.256,13.226-18.455,11.229l0,0
	c-8.196-1.99-13.216-10.258-11.227-18.457l0,0l9.709-34.659c1.992-8.199,10.256-13.223,18.447-11.223l0,0
	c4.097,0.995,7.405,3.558,9.438,6.896l0,0C798.523,513.09,799.278,517.205,798.281,521.302L798.281,521.302z"/>
<path fill="#a1a1a1" d="M844.794,586.814l9.93,34.603c2.596,8.021-1.791,16.637-9.817,19.241l0,0
	c-8.021,2.606-16.635-1.793-19.246-9.819l0,0l-9.927-34.598c-2.606-8.021,1.793-16.635,9.817-19.236l0,0
	c4.006-1.304,8.168-0.853,11.651,0.921l0,0C840.685,579.698,843.488,582.808,844.794,586.814L844.794,586.814z"/>
<path fill="#a1a1a1" d="M1050,549.963l16.5,0.25c6.351,0,11.5,5.149,11.5,11.5l0,0c0,6.351-5.149,13.5-11.5,13.5h-11
	c-6.351,0-11.5-6.149-11.5-12.5C1044,562.713,1050.25,550.213,1050,549.963z"/>
<path fill="#a1a1a1" d="M963,549.963l-16.5,0.25c-6.351,0-11.5,5.149-11.5,11.5l0,0c0,6.351,5.149,13.5,11.5,13.5h11
	c6.351,0,11.5-6.149,11.5-12.5C969,562.713,962.75,550.213,963,549.963z"/>
</svg>
