<?xml version="1.0" encoding="utf-8"?>
<!-- Generator: Adobe Illustrator 17.0.2, SVG Export Plug-In . SVG Version: 6.00 Build 0)  -->
<!DOCTYPE svg PUBLIC "-//W3C//DTD SVG 1.1//EN" "http://www.w3.org/Graphics/SVG/1.1/DTD/svg11.dtd">
<svg version="1.1" id="Layer_1" xmlns="http://www.w3.org/2000/svg" xmlns:xlink="http://www.w3.org/1999/xlink" x="0px" y="0px"
	 width="462px" height="200px" viewBox="0 0 462 200" enable-background="new 0 0 462 200" xml:space="preserve">
<g>
	<path fill="#252525" d="M42.292,64.059v-2.814l4.552-0.166l-6.952-20.442H15.229L8.276,61.08l4.552,0.166v2.814H0v-2.896
		l4.552-0.083L24.084,5.545l-5.297-0.166V2.483h11.173L50.569,61.08l4.635,0.083v2.896H42.292z M30.54,14.318
		c-0.91-3.062-1.903-6.124-2.814-9.021h-0.331c-0.911,2.897-1.821,5.876-2.814,9.021l-8.276,23.174h22.512L30.54,14.318z"/>
	<path fill="#252525" d="M87.486,64.059v-3.476c-3.476,1.986-8.938,4.469-15.394,4.469c-9.104,0-13.408-4.138-13.408-12.994v-0.745
		c0-10.925,6.539-13.408,20.112-13.408h8.524v-4.304c0-9.601-2.234-12.083-13.159-12.083c-2.152,0-4.966,0.083-9.27,0.414
		l-0.249,5.38h-2.814v-7.614c4.883-0.579,8.69-1.159,12.497-1.159c13.573,0,16.388,4.138,16.388,15.063V61.08l4.635,0.083v2.896
		H87.486z M87.32,40.637h-8.524c-12.084,0-16.719,1.82-16.719,10.676v0.911c0,7.366,3.725,10.097,10.511,10.097
		c5.959,0,11.669-2.565,14.732-4.386V40.637z"/>
	<path fill="#252525" d="M121.338,64.059c-7.117,0-13.159,0-20.277,0v-6.125l4.469-0.58V9.352l-4.469-0.579V2.566
		c7.283,0,13.325,0,20.691,0c14.98,0,24.746,2.317,24.746,15.808v0.745c0,5.214-2.482,10.759-8.359,13.242
		c6.042,2.317,8.69,7.614,8.69,13.49v0.91C146.829,61.576,135.822,64.059,121.338,64.059z M138.801,18.374
		c0-8.524-6.208-9.021-17.049-9.021c-3.311,0-5.38,0-8.607,0v19.532h12.332c10.676,0,13.325-3.973,13.325-9.766V18.374z
		 M139.132,45.851c0-5.959-2.897-10.428-13.656-10.428h-12.332v21.932c3.062,0,5.049,0,8.193,0c11.339,0,17.794-1.407,17.794-10.594
		V45.851z"/>
	<path fill="#252525" d="M173.4,65.218c-5.628,0-9.104-0.331-16.718-1.159V6.456l-4.469-0.414V0h11.918v20.277
		c4.055-2.234,8.525-3.062,12.249-3.062c11.752,0,17.215,6.208,17.215,19.367v7.78C193.594,58.928,186.891,65.218,173.4,65.218z
		 M186.146,36.499c0-9.187-2.896-12.745-10.677-12.745c-2.317,0-7.862,0.414-11.338,2.4v32.03c2.069,0.165,5.379,0.414,9.435,0.414
		c8.524,0,12.58-3.476,12.58-14.318V36.499z"/>
	<path fill="#252525" d="M228.938,65.466c-17.546,0-27.643-6.539-27.643-28.719v-6.952c0-22.181,10.097-28.636,27.643-28.636
		c5.131,0,13.656,0.91,16.636,1.738v15.56h-9.518l-0.745-4.801c-1.573,0-3.228-0.083-4.883-0.083
		c-9.104,0-13.491,2.897-13.491,16.222v6.952c0,13.408,4.387,16.387,13.573,16.387c1.573,0,3.311-0.083,4.801-0.166l0.745-4.883
		h9.518v15.643C242.594,64.556,234.069,65.466,228.938,65.466z"/>
	<path fill="#252525" d="M273.22,65.218c-14.484,0-21.105-7.532-21.105-22.263V37.74c0-14.897,6.621-22.181,21.105-22.181
		c7.532,0,13.656,1.159,15.725,1.821v13.242h-8.938l-0.745-3.642c-1.158-0.083-2.731-0.166-3.642-0.166
		c-5.959,0-9.104,1.821-9.104,10.925v5.214c0,9.187,3.145,11.09,9.352,11.09c2.814,0,6.87-0.248,13.077-0.662v10.015
		C286.214,64.142,280.752,65.218,273.22,65.218z"/>
	<path fill="#252525" d="M294.989,64.059V50.403l12.166-0.662V20.029l-12.166,2.731V8.442l18.622-5.959h16.718v47.258l12.084,0.662
		v13.656H294.989z"/>
	<path fill="#252525" d="M347.796,64.059v-7.531c0-15.477,4.386-22.347,18.291-29.464c8.525-4.387,10.18-5.38,10.18-8.194
		c0-2.731-1.573-3.642-8.028-3.642c-1.241,0-3.642,0.083-6.29,0.249l-0.579,4.055h-12.829V3.973
		c7.614-2.152,17.794-2.979,24.333-2.979c19.449,0,27.146,5.214,27.146,16.387c0,9.601-4.8,14.566-18.042,21.022
		c-10.345,5.048-11.338,5.876-11.338,10.18v0.496h14.483l0.579-3.724h12.829v18.705H347.796z"/>
	<path fill="#252525" d="M429.818,65.631c-9.27,0-19.45-1.572-24.084-3.228V46.761h12.829l0.58,4.139
		c2.731,0.165,5.379,0.165,7.614,0.165c5.297,0,7.448-0.662,7.448-5.462v-0.828c0-3.724-1.324-5.214-7.862-5.214h-15.725V26.484
		h15.808c6.29,0,7.779-1.573,7.779-5.214v-0.662c0-4.386-1.655-5.214-7.448-5.214c-2.4,0-5.049,0.083-7.532,0.166l-0.58,3.973
		h-12.828V4.138c4.718-1.572,14.649-3.145,24.001-3.145c16.635,0,27.56,4.221,27.56,17.628v0.828c0,5.297-1.903,10.594-7.117,13.407
		c5.379,2.566,7.117,8.028,7.117,12.994v0.993C457.378,60.169,449.268,65.631,429.818,65.631z"/>
</g>
<g>
	<path fill="#252525" d="M5.496,149.556c-2.16,0-4.44-0.336-5.088-0.504v-3.553h1.68l0.264,2.064
		c1.104,0.048,2.136,0.072,3.144,0.072c2.424,0,3.648-0.84,3.648-2.929c0-1.416-0.528-2.256-2.424-3.096l-3.048-1.368
		C1.296,139.187,0,137.891,0,135.418c0-2.928,1.92-4.32,5.833-4.32c2.136,0,4.272,0.312,4.92,0.48v3.433h-1.68l-0.312-1.896
		c-0.912-0.072-2.016-0.096-2.856-0.096c-2.352,0-3.672,0.552-3.672,2.399c0,1.368,0.504,2.137,2.4,2.977l3.072,1.345
		c2.496,1.104,3.696,2.472,3.696,4.968C11.401,147.804,9.433,149.556,5.496,149.556z"/>
	<path fill="#252525" d="M19.08,149.556c-3.696,0-5.616-2.136-5.616-5.977v-1.92c0-3.841,1.92-5.977,5.616-5.977
		c3.721,0,5.641,2.136,5.641,5.977v1.92C24.721,147.42,22.801,149.556,19.08,149.556z M22.561,141.659c0-2.856-1.056-4.08-3.48-4.08
		c-2.376,0-3.456,1.224-3.456,4.08v1.92c0,2.856,1.056,4.08,3.456,4.08c2.424,0,3.48-1.224,3.48-4.08V141.659z"/>
	<path fill="#252525" d="M36.457,149.22v-8.353c0-2.593-0.672-3.312-2.497-3.312c-1.512,0-3.024,0.528-3.864,0.937v8.856l1.296,0.12
		v1.752h-4.729v-1.752l1.296-0.12v-14.81l-1.296-0.12v-1.776h3.432v6.121c0.84-0.433,2.376-1.08,4.296-1.08
		c2.88,0,4.225,1.656,4.225,5.112v6.553l1.296,0.12v1.752H36.457z"/>
	<path fill="#252525" d="M46.632,149.556c-3.696,0-5.616-2.136-5.616-5.977v-1.92c0-3.841,1.92-5.977,5.616-5.977
		c3.721,0,5.641,2.136,5.641,5.977v1.92C52.272,147.42,50.353,149.556,46.632,149.556z M50.112,141.659
		c0-2.856-1.056-4.08-3.48-4.08c-2.376,0-3.456,1.224-3.456,4.08v1.92c0,2.856,1.056,4.08,3.456,4.08c2.424,0,3.48-1.224,3.48-4.08
		V141.659z"/>
	<path fill="#252525" d="M63.259,149.556c-2.16,0-4.44-0.336-5.088-0.504v-3.553h1.68l0.264,2.064
		c1.104,0.048,2.136,0.072,3.144,0.072c2.424,0,3.648-0.84,3.648-2.929c0-1.416-0.528-2.256-2.424-3.096l-3.048-1.368
		c-2.376-1.057-3.672-2.353-3.672-4.825c0-2.928,1.92-4.32,5.833-4.32c2.136,0,4.272,0.312,4.92,0.48v3.433h-1.68l-0.312-1.896
		c-0.912-0.072-2.016-0.096-2.856-0.096c-2.352,0-3.672,0.552-3.672,2.399c0,1.368,0.504,2.137,2.4,2.977l3.072,1.345
		c2.496,1.104,3.696,2.472,3.696,4.968C69.164,147.804,67.195,149.556,63.259,149.556z"/>
	<path fill="#252525" d="M75.571,149.556c-2.4,0-3.264-0.864-3.264-3.36v-8.377l-2.665-0.191v-1.608h2.665v-3.433h2.16v3.433h3.528
		v1.8h-3.528v8.281c0,1.488,0.12,1.728,1.344,1.728c0.744,0,1.776-0.071,2.184-0.119v1.487
		C77.635,149.315,76.579,149.556,75.571,149.556z"/>
	<path fill="#252525" d="M87.715,149.22v-0.672c-0.888,0.528-2.16,1.008-3.696,1.008c-3.096,0-4.92-1.752-4.92-5.641v-2.28
		c0-4.729,2.376-5.952,5.448-5.952c1.056,0,2.041,0.12,3.097,0.336v-3.48l-1.464-0.12v-1.776h3.625v16.706l1.296,0.12v1.752H87.715z
		 M87.644,137.818c-1.081-0.191-2.232-0.312-2.953-0.312c-2.136,0-3.432,0.6-3.432,4.128v2.28c0,2.616,0.96,3.793,3.168,3.793
		c1.176,0,2.232-0.337,3.216-0.816V137.818z"/>
</g>
<g>
	<path fill="#252525" d="M174.344,148.92v-0.666c-0.594,0.414-1.674,0.918-3.151,0.918c-1.854,0-2.953-0.828-2.953-2.809v-0.36
		c0-2.61,1.782-3.061,4.555-3.061h1.477v-0.721c0-1.71-0.342-2.088-2.323-2.088c-0.558,0-1.062,0.018-1.657,0.054l-0.162,1.044
		h-1.242v-2.034c0.288-0.108,1.657-0.433,3.187-0.433c3.295,0,3.817,1.207,3.817,3.457v5.294l0.973,0.09v1.314H174.344z
		 M174.272,144.167h-1.477c-2.089,0-2.935,0.252-2.935,1.836v0.486c0,1.116,0.685,1.422,1.657,1.422c1.17,0,2.34-0.521,2.755-0.792
		V144.167z"/>
	<path fill="#252525" d="M182.263,149.172c-1.224,0-1.98-0.072-3.637-0.252v-12.532l-0.973-0.09v-1.314h2.593v4.412
		c0.882-0.486,1.855-0.667,2.665-0.667c2.557,0,3.745,1.351,3.745,4.214v1.692C186.656,147.804,185.198,149.172,182.263,149.172z
		 M185.036,142.924c0-1.998-0.63-2.772-2.323-2.772c-0.504,0-1.71,0.09-2.467,0.522v6.968c0.45,0.036,1.17,0.09,2.053,0.09
		c1.854,0,2.737-0.756,2.737-3.115V142.924z"/>
	<path fill="#252525" d="M192.271,149.172c-2.701,0-3.961-1.639-3.961-4.465v-1.495c0-2.845,1.26-4.447,3.961-4.447
		c1.333,0,2.449,0.198,2.827,0.343v2.124h-1.26l-0.162-1.026c-0.36-0.036-0.9-0.054-1.17-0.054c-1.584,0-2.575,0.594-2.575,3.061
		v1.495c0,2.467,0.99,3.078,2.575,3.078c0.522,0,1.386-0.054,2.593-0.18v1.225C194.756,148.938,193.711,149.172,192.271,149.172z"/>
	<path fill="#252525" d="M202.676,148.92v-0.504c-0.666,0.396-1.621,0.756-2.773,0.756c-2.323,0-3.691-1.314-3.691-4.231v-1.71
		c0-3.547,1.782-4.466,4.087-4.466c0.792,0,1.531,0.09,2.323,0.252v-2.61l-1.098-0.09v-1.333h2.719v12.532l0.972,0.09v1.314H202.676
		z M202.622,140.367c-0.81-0.144-1.674-0.233-2.214-0.233c-1.603,0-2.575,0.449-2.575,3.097v1.71c0,1.963,0.72,2.845,2.376,2.845
		c0.882,0,1.675-0.252,2.413-0.611V140.367z"/>
	<path fill="#252525" d="M207.769,144.562v0.198c0,1.711,0.252,3.007,2.989,3.007c1.099,0,2.521-0.126,3.457-0.288v1.297
		c-0.684,0.18-1.891,0.396-3.529,0.396c-3.511,0-4.538-1.566-4.538-4.771v-0.756c0-3.115,1.387-4.88,4.195-4.88
		c2.917,0,4.25,1.747,4.25,5.078v0.72H207.769z M212.918,143.05c0-1.206-0.252-2.881-2.557-2.881c-2.269,0-2.575,1.675-2.575,2.881
		v0.181h5.131V143.05z"/>
	<path fill="#252525" d="M218.911,140.367v7.148l0.973,0.09v1.314h-3.565v-1.314l0.973-0.09v-7.148l-1.873-0.144v-1.207h1.873
		v-1.188c0-1.531,0.216-3.079,2.557-3.079c0.774,0,1.458,0.126,1.909,0.252v1.099c-0.432-0.019-1.081-0.072-1.693-0.072
		c-1.098,0-1.152,0.54-1.152,1.801v1.188h2.809v1.351H218.911z"/>
	<path fill="#252525" d="M226.903,152.936c-3.205,0-4.267-1.188-4.267-3.188c0-0.774,0.342-1.584,0.918-2.143
		c-0.54-0.36-0.81-0.864-0.81-1.494c0-0.648,0.288-1.207,0.828-1.566c-0.504-0.559-0.738-1.314-0.738-2.359
		c0-1.926,0.756-3.421,4.105-3.421h4.393v1.152l-1.044,0.145c0.216,0.288,0.667,0.99,0.667,2.124c0,2.143-1.152,3.421-4.069,3.421
		c-1.008,0-1.765-0.144-2.323-0.378c-0.27,0.217-0.414,0.469-0.414,0.757c0,0.504,0.27,0.666,0.918,0.666h1.818
		c2.575,0,4.394,0.342,4.394,3.097C231.279,151.692,230.108,152.936,226.903,152.936z M226.885,147.966h-2.017
		c-0.342,0.306-0.63,0.882-0.63,1.765c0,1.224,0.342,1.891,2.665,1.891c2.215,0,2.773-0.648,2.773-1.891
		C229.676,148.271,229.1,147.966,226.885,147.966z M226.885,140.098c-2.161,0-2.467,0.846-2.467,2.088
		c0,1.261,0.378,2.089,2.467,2.089c2.107,0,2.485-0.828,2.485-2.089C229.37,140.89,228.992,140.098,226.885,140.098z"/>
	<path fill="#252525" d="M239.918,148.92v-6.266c0-1.944-0.504-2.485-1.873-2.485c-1.134,0-2.269,0.396-2.898,0.702v6.645
		l0.972,0.09v1.314h-3.547v-1.314l0.973-0.09v-11.109l-0.973-0.09v-1.333h2.575v4.592c0.63-0.324,1.782-0.811,3.223-0.811
		c2.161,0,3.169,1.242,3.169,3.835v4.916l0.973,0.09v1.314H239.918z"/>
	<path fill="#252525" d="M243.731,148.92v-1.332l0.973-0.072v-7.076l-0.973-0.09v-1.333h2.593v8.499l0.955,0.072v1.332H243.731z
		 M244.704,137.181v-2.197h1.638v2.197H244.704z"/>
	<path fill="#252525" d="M248.213,152.917c-0.45,0-1.044-0.054-1.206-0.09v-1.188c0.234,0,0.63,0.019,1.062,0.019
		c0.882,0,1.026-0.36,1.026-1.549v-9.669l-0.972-0.09v-1.333h2.593v11.092C250.716,152.215,250.086,152.917,248.213,152.917z
		 M249.096,137.181v-2.197h1.639v2.197H249.096z"/>
	<path fill="#252525" d="M259.159,148.92l-3.997-4.915v4.915h-2.575v-1.314l0.973-0.09v-11.109l-0.973-0.09v-1.333h2.575v8.499
		l3.979-4.466h2.088v1.333l-1.26,0.09l-2.953,3.277l3.115,3.799l1.098,0.09v1.314H259.159z"/>
	<path fill="#252525" d="M262.451,148.92v-1.314l0.973-0.09v-11.109l-0.973-0.09v-1.333h2.575v12.532l0.972,0.09v1.314H262.451z"/>
	<path fill="#252525" d="M279.249,148.92v-6.572c0-1.386,0-2.196-1.477-2.196c-0.684,0-1.638,0.324-2.502,0.828
		c0.072,0.468,0.072,0.937,0.072,1.368v6.572h-1.621v-6.572c0-1.386,0-2.196-1.35-2.196c-0.864,0-1.854,0.45-2.575,0.864v6.5
		l0.972,0.09v1.314h-3.547v-1.314l0.973-0.09v-7.076l-0.973-0.09v-1.333h2.575v0.774c0.81-0.594,1.836-1.026,2.953-1.026
		c1.152,0,1.801,0.414,2.179,1.062c1.152-0.756,2.161-1.062,3.061-1.062c2.881,0,2.881,2.053,2.881,3.583v5.168l0.972,0.09v1.314
		H279.249z"/>
	<path fill="#252525" d="M290.407,148.92v-6.32c0-1.8-0.288-2.448-1.657-2.448c-0.774,0-1.8,0.306-3.115,0.882v6.482l0.972,0.09
		v1.314h-3.547v-1.314l0.973-0.09v-7.076l-0.973-0.09v-1.333h2.575v0.774c1.152-0.594,2.196-1.026,3.295-1.026
		c2.629,0,3.097,1.423,3.097,3.835v4.916l0.973,0.09v1.314H290.407z"/>
	<path fill="#252525" d="M298.039,149.172c-2.773,0-4.213-1.603-4.213-4.483v-1.44c0-2.881,1.44-4.483,4.213-4.483
		c2.791,0,4.231,1.603,4.231,4.483v1.44C302.27,147.569,300.829,149.172,298.039,149.172z M300.649,143.248
		c0-2.143-0.792-3.061-2.611-3.061c-1.783,0-2.593,0.918-2.593,3.061v1.44c0,2.143,0.792,3.062,2.593,3.062
		c1.818,0,2.611-0.919,2.611-3.062V143.248z"/>
	<path fill="#252525" d="M307.974,149.172c-0.666,0-1.603-0.126-2.214-0.288v2.395l0.972,0.09v1.333h-3.547v-1.333l0.973-0.09
		v-10.839l-0.973-0.09v-1.333h2.521v0.667c0.882-0.612,1.927-0.919,2.881-0.919c2.269,0,3.583,1.278,3.583,4.609v0.973
		C312.169,148.164,310.351,149.172,307.974,149.172z M310.567,143.374c0-2.431-0.756-3.187-2.232-3.187
		c-0.774,0-1.405,0.162-2.575,0.738v6.607c0.81,0.162,1.548,0.271,2.214,0.271c1.584,0,2.593-0.559,2.593-3.457V143.374z"/>
	<path fill="#252525" d="M319.278,152.701v-1.333l0.972-0.09v-2.809c-1.116,0.522-2.143,0.702-3.007,0.702
		c-2.323,0-3.421-1.261-3.421-4.609v-0.99c0-3.799,1.495-4.808,4.483-4.808c1.207,0,1.926,0.055,3.547,0.271v12.262l0.972,0.09
		v1.314H319.278z M320.232,140.277c-0.468-0.036-1.44-0.09-1.962-0.09c-1.891,0-2.827,0.396-2.827,3.385v0.99
		c0,2.377,0.486,3.188,2.07,3.188c0.541,0,1.531-0.108,2.719-0.595V140.277z"/>
	<path fill="#252525" d="M325.92,141.052v6.464l0.972,0.09v1.314h-3.547v-1.314l0.973-0.09v-7.076l-0.973-0.09v-1.333h2.557v0.793
		c0.936-0.738,2.143-1.045,3.529-1.045v1.44C328.134,140.205,326.676,140.565,325.92,141.052z"/>
	<path fill="#252525" d="M333.642,149.172c-1.386,0-2.917-0.288-3.241-0.396v-2.305h1.26l0.18,1.242
		c0.576,0.036,1.152,0.071,1.747,0.071c1.692,0,2.125-0.468,2.125-1.332c0-0.882-0.306-1.152-1.999-1.872l-0.72-0.307
		c-1.909-0.811-2.719-1.62-2.719-3.043c0-1.656,1.098-2.467,3.583-2.467c1.333,0,2.773,0.234,3.133,0.36v2.106h-1.26l-0.18-1.008
		c-0.522-0.036-1.26-0.072-1.621-0.072c-1.44,0-2.034,0.18-2.034,1.08c0,0.774,0.324,1.099,1.729,1.711l0.72,0.306
		c2.305,1.026,2.989,1.639,2.989,3.169C337.333,147.84,336.577,149.172,333.642,149.172z"/>
	<path fill="#252525" d="M342.534,149.172c-1.801,0-2.449-0.648-2.449-2.521v-6.284l-1.999-0.144v-1.207h1.999v-2.574h1.621v2.574
		h2.646v1.351h-2.646v6.212c0,1.116,0.09,1.297,1.008,1.297c0.559,0,1.333-0.055,1.639-0.091v1.117
		C344.083,148.992,343.29,149.172,342.534,149.172z"/>
	<path fill="#252525" d="M353.029,148.92v-0.774c-1.314,0.666-2.431,1.026-3.439,1.026c-2.449,0-2.935-1.692-2.935-3.835v-4.897
		l-0.973-0.09v-1.333h2.575v6.32c0,1.801,0.288,2.448,1.674,2.448c0.774,0,1.783-0.306,3.097-0.882v-6.464l-0.973-0.09v-1.333h2.593
		v8.499l0.973,0.09v1.314H353.029z"/>
	<path fill="#252525" d="M364.874,140.439l-2.827,8.48h-2.233l-2.827-8.48l-0.9-0.09v-1.333h3.169v1.207l-0.594,0.054l1.495,4.825
		c0.306,0.973,0.54,1.818,0.774,2.719h0.036c0.234-0.9,0.45-1.729,0.756-2.719l1.477-4.825l-0.576-0.054v-1.207h3.169v1.333
		L364.874,140.439z"/>
	<path fill="#252525" d="M375.637,139.827l1.548,5.33c0.234,0.773,0.432,1.656,0.685,2.538h0.09
		c0.054-0.828,0.216-1.692,0.396-2.557l1.044-4.844l-0.756-0.071v-1.207h3.241v1.333l-0.882,0.071l-1.927,8.499h-2.341l-1.782-5.941
		c-0.288-0.937-0.45-1.566-0.54-1.999h-0.072c-0.09,0.433-0.252,1.062-0.54,1.999l-1.783,5.941h-2.34l-1.927-8.499l-0.882-0.071
		v-1.333h3.241v1.207l-0.756,0.071l1.044,4.844c0.18,0.864,0.342,1.729,0.396,2.557h0.09c0.252-0.882,0.45-1.765,0.684-2.538
		l1.549-5.33H375.637z"/>
	<path fill="#252525" d="M389.82,148.92l-2.539-3.691l-2.467,3.691h-2.035v-1.314l1.098-0.09l2.485-3.638l-2.341-3.438l-1.116-0.09
		v-1.333h2.053l2.611,3.817l2.467-3.817h1.98v1.333l-1.116,0.09l-2.485,3.637l2.358,3.439l1.099,0.09v1.314H389.82z"/>
	<path fill="#252525" d="M402.079,140.439l-3.241,9.345c-0.666,1.908-1.296,3.133-3.331,3.133c-0.846,0-1.584-0.107-1.926-0.18
		v-1.242c0.774,0.054,1.224,0.071,1.873,0.071c0.972,0,1.26-0.504,1.782-1.944l0.252-0.702l-3.277-8.48l-1.116-0.09v-1.333h3.367
		v1.207l-0.558,0.054l1.548,4.304c0.306,0.882,0.504,1.566,0.792,2.628h0.036c0.252-1.062,0.45-1.729,0.756-2.646l1.404-4.285
		l-0.594-0.054v-1.207h3.349v1.333L402.079,140.439z"/>
	<path fill="#252525" d="M404.452,148.92v-1.818l5.51-6.734h-3.854l-0.162,0.864h-1.26v-2.215h7.004v1.675l-5.6,6.896h4.177
		l0.18-1.116h1.26v2.448H404.452z"/>
	<path fill="#252525" d="M167.934,172.92v-1.314l0.99-0.09l3.439-10.552l-1.044-0.09v-1.332h3.799l3.925,11.974l0.937,0.09v1.314
		h-3.637v-1.314l0.937-0.072l-0.937-2.988h-4.79l-0.954,2.988l0.937,0.072v1.314H167.934z M174.578,163.125
		c-0.234-0.72-0.396-1.404-0.541-2.196h-0.18c-0.162,0.792-0.306,1.477-0.54,2.196l-1.278,3.907h3.799L174.578,163.125z"/>
	<path fill="#252525" d="M185.557,172.92c-1.548,0-2.863,0-4.411,0v-1.332l0.972-0.126v-10.443l-0.972-0.126v-1.351
		c1.584,0,2.899,0,4.501,0c3.259,0,5.383,0.504,5.383,3.439v0.161c0,1.135-0.54,2.341-1.818,2.881
		c1.314,0.505,1.891,1.657,1.891,2.936v0.198C191.103,172.38,188.708,172.92,185.557,172.92z M189.356,162.981
		c0-1.855-1.351-1.963-3.709-1.963c-0.721,0-1.17,0-1.873,0v4.249h2.683c2.323,0,2.899-0.864,2.899-2.125V162.981z M189.428,168.959
		c0-1.297-0.63-2.269-2.971-2.269h-2.683v4.771c0.667,0,1.099,0,1.783,0c2.467,0,3.871-0.307,3.871-2.305V168.959z"/>
	<path fill="#252525" d="M198.122,173.172c-3.061,0-5.402-1.134-5.402-5.834v-2.214c0-4.7,2.341-5.798,5.402-5.798
		c1.224,0,2.557,0.198,3.097,0.306v2.629h-1.296l-0.18-1.404c-0.522-0.019-1.08-0.054-1.62-0.054c-2.521,0-3.745,1.026-3.745,4.321
		v2.214c0,3.295,1.224,4.34,3.745,4.34c0.54,0,1.098-0.019,1.62-0.036l0.18-1.44h1.296v2.665
		C200.678,172.956,199.346,173.172,198.122,173.172z"/>
	<path fill="#252525" d="M207.499,172.92c-1.53,0-3.187,0-4.717,0v-1.314l0.972-0.144v-10.443l-0.972-0.145v-1.332
		c1.53,0,3.043,0,4.717,0c4.159,0,5.87,2.196,5.87,5.582v2.178C213.369,170.705,211.802,172.92,207.499,172.92z M211.694,165.124
		c0-3.043-1.458-4.105-4.339-4.105c-0.648,0-1.296,0-1.945,0v10.443c0.648,0,1.297,0,1.945,0c2.881,0,4.339-1.117,4.339-4.16
		V165.124z"/>
	<path fill="#252525" d="M214.5,172.92v-1.314l0.972-0.09v-10.552l-0.972-0.09v-1.332h8.895v2.719h-1.296l-0.18-1.242h-4.789v4.213
		h5.888v1.494h-5.888v4.736h4.789l0.18-1.279h1.296v2.737H214.5z"/>
	<path fill="#252525" d="M227.551,166.726v4.79l0.972,0.09v1.314h-3.601v-1.314l0.972-0.09v-10.552l-0.972-0.09v-1.332h8.895v2.719
		h-1.296l-0.18-1.242h-4.789v4.213h5.888v1.494H227.551z"/>
	<path fill="#252525" d="M240.385,173.172c-2.971,0-5.312-1.314-5.312-5.762v-2.358c0-4.699,2.683-5.726,5.33-5.726
		c1.945,0,3.727,0.306,3.925,0.342v2.593h-1.296l-0.198-1.368c-0.576-0.036-1.44-0.09-2.196-0.09c-2.269,0-3.89,0.594-3.89,4.249
		v2.358c0,3.403,1.387,4.249,3.854,4.249c0.774,0,1.53-0.018,2.07-0.054v-4.195l-1.908-0.144v-1.297h3.565v6.824
		C243.789,172.902,242.222,173.172,240.385,173.172z"/>
	<path fill="#252525" d="M254.39,172.92v-1.314l0.972-0.09V166.6h-6.698v4.916l0.973,0.09v1.314h-3.601v-1.314l0.972-0.09v-10.552
		l-0.972-0.09v-1.332h3.601v1.314l-0.973,0.09v4.159h6.698v-4.159l-0.972-0.09v-1.314h3.601v1.332l-0.973,0.09v10.552l0.973,0.09
		v1.314H254.39z"/>
	<path fill="#252525" d="M259.464,172.92v-1.314l0.972-0.09v-10.552l-0.972-0.09v-1.332h3.601v1.332l-0.972,0.09v10.552l0.972,0.09
		v1.314H259.464z"/>
	<path fill="#252525" d="M267.132,160.964V174c0,1.963-0.648,2.863-2.755,2.863c-0.45,0-1.116-0.072-1.333-0.145v-1.242
		c0.414,0,0.811,0,1.225,0c1.116,0,1.224-0.396,1.224-1.477v-13.036l-0.972-0.09v-1.332h3.583v1.332L267.132,160.964z"/>
	<path fill="#252525" d="M277.826,172.92l-5.6-6.446v5.042l0.973,0.09v1.314h-3.601v-1.314l0.972-0.09v-10.552l-0.972-0.09v-1.332
		h3.601v1.314l-0.973,0.09v4.88l5.744-6.284h1.926v1.332l-1.062,0.072l-4.735,5.186l4.789,5.401l1.008,0.072v1.314H277.826z"/>
	<path fill="#252525" d="M281.243,172.92v-1.314l0.972-0.09v-10.552l-0.972-0.09v-1.332h3.601v1.332l-0.972,0.09v10.498h4.645
		l0.18-1.297h1.296v2.755H281.243z"/>
	<path fill="#252525" d="M301.226,172.92v-1.314l0.972-0.09v-7.292c0-0.973,0.036-1.566,0.09-2.485h-0.036
		c-0.306,0.738-0.63,1.369-0.955,2.053l-2.25,4.808h-2.035l-2.197-4.808c-0.306-0.684-0.63-1.368-0.954-2.053h-0.036
		c0.036,0.919,0.072,1.495,0.072,2.485v7.292l0.972,0.09v1.314h-3.583v-1.314l0.972-0.09v-10.552l-0.972-0.09v-1.332h3.151
		l2.773,6.031c0.27,0.576,0.54,1.225,0.792,1.801h0.036c0.252-0.594,0.558-1.242,0.828-1.836l2.809-5.996h3.133v1.332l-0.972,0.09
		v10.552l0.972,0.09v1.314H301.226z"/>
	<path fill="#252525" d="M316.868,160.964v11.956h-2.359l-4.717-9.597c-0.324-0.666-0.738-1.477-1.08-2.269h-0.036
		c0.054,0.882,0.09,1.854,0.09,2.79v7.671l0.972,0.09v1.314h-3.493v-1.314l0.972-0.09v-10.552l-0.972-0.09v-1.332h3.349l4.663,9.345
		c0.324,0.648,0.756,1.566,1.081,2.287h0.036c-0.072-1.062-0.09-2.107-0.09-2.936v-7.292l-0.972-0.09v-1.314h3.529v1.332
		L316.868,160.964z"/>
	<path fill="#252525" d="M324.084,173.172c-3.331,0-5.167-2.16-5.167-5.978v-1.908c0-3.817,1.836-5.96,5.167-5.96
		s5.167,2.143,5.167,5.96v1.908C329.251,171.012,327.415,173.172,324.084,173.172z M327.577,165.286c0-3.277-1.44-4.483-3.493-4.483
		s-3.493,1.206-3.493,4.483v1.908c0,3.277,1.44,4.501,3.493,4.501s3.493-1.224,3.493-4.501V165.286z"/>
	<path fill="#252525" d="M334.542,167.717c-0.522,0-1.062,0-1.585,0v3.799l0.973,0.09v1.314h-3.601v-1.314l0.972-0.09v-10.552
		l-0.972-0.09v-1.332c1.404,0,2.809,0,4.213,0c3.061,0,5.474,0.612,5.491,3.943v0.233
		C340.033,167.086,337.621,167.717,334.542,167.717z M338.359,163.485c-0.018-2.125-1.296-2.467-3.817-2.467
		c-0.522,0-1.062,0-1.585,0v5.239c0.522,0,1.062,0,1.585,0c2.539,0,3.817-0.396,3.817-2.539V163.485z"/>
	<path fill="#252525" d="M347.449,173.118v0.99c0,0.72,0.162,0.882,1.206,0.882h1.531v1.135c-0.252,0.054-1.188,0.18-1.999,0.18
		c-1.404,0-2.358-0.342-2.358-2.196v-0.99c-2.809-0.342-4.357-2.413-4.357-5.924v-1.908c0-3.817,1.836-5.96,5.167-5.96
		s5.167,2.143,5.167,5.96v1.908C351.806,170.688,350.239,172.776,347.449,173.118z M350.131,165.286c0-3.277-1.44-4.483-3.493-4.483
		c-2.052,0-3.493,1.206-3.493,4.483v1.908c0,3.277,1.44,4.501,3.493,4.501c2.053,0,3.493-1.224,3.493-4.501V165.286z"/>
	<path fill="#252525" d="M361.471,172.92l-3.151-5.222c-0.36,0.019-0.864,0.019-1.26,0.019c-0.522,0-1.026,0-1.548,0v3.799
		l0.972,0.09v1.314h-3.601v-1.314l0.972-0.09v-10.552l-0.972-0.09v-1.332c1.368,0,2.755,0,4.123,0c3.097,0,5.582,0.648,5.582,3.961
		v0.126c0,2.143-0.954,3.188-2.502,3.728l2.502,4.177l1.008,0.072v1.314H361.471z M360.913,163.503c0-2.106-1.314-2.484-3.907-2.484
		c-0.504,0-0.99,0-1.494,0v5.239c0.522,0,1.026,0,1.548,0c2.611,0,3.853-0.522,3.853-2.629V163.503z"/>
	<path fill="#252525" d="M368.742,173.172c-1.621,0-3.331-0.252-3.817-0.378v-2.665h1.26l0.198,1.549
		c0.828,0.036,1.603,0.054,2.359,0.054c1.818,0,2.736-0.63,2.736-2.196c0-1.062-0.396-1.692-1.818-2.323l-2.287-1.026
		c-1.783-0.792-2.755-1.765-2.755-3.619c0-2.196,1.44-3.24,4.375-3.24c1.603,0,3.205,0.233,3.691,0.359v2.575h-1.26l-0.234-1.423
		c-0.684-0.054-1.512-0.071-2.143-0.071c-1.764,0-2.755,0.414-2.755,1.8c0,1.026,0.378,1.603,1.801,2.233l2.305,1.008
		c1.873,0.828,2.773,1.854,2.773,3.728C373.171,171.857,371.695,173.172,368.742,173.172z"/>
	<path fill="#252525" d="M382.909,162.261l-0.18-1.242h-2.665v10.533l0.972,0.09v1.278h-3.601v-1.278l0.972-0.09v-10.533h-2.683
		l-0.162,1.242h-1.278v-2.719h9.903v2.719H382.909z"/>
	<path fill="#252525" d="M396.158,160.946v6.41c0,3.871-1.639,5.815-4.844,5.815c-3.223,0-4.861-1.944-4.861-5.815v-6.41
		l-0.972-0.09v-1.314h3.601v1.314l-0.972,0.09v6.229c0,3.241,0.756,4.502,3.205,4.502c2.431,0,3.205-1.278,3.205-4.502v-6.229
		l-0.972-0.09v-1.314h3.583v1.314L396.158,160.946z"/>
	<path fill="#252525" d="M409.405,160.964l-3.943,11.956h-2.215l-3.943-11.956l-0.918-0.09v-1.332h3.601v1.314l-0.937,0.072
		l2.719,8.426c0.252,0.757,0.432,1.621,0.612,2.305h0.036c0.162-0.702,0.342-1.548,0.594-2.305l2.719-8.426l-0.918-0.072v-1.314
		h3.602v1.332L409.405,160.964z"/>
	<path fill="#252525" d="M426.452,160.964l-2.161,11.956h-2.647l-1.818-8.282c-0.126-0.576-0.252-1.135-0.378-1.711h-0.054
		c-0.126,0.576-0.252,1.135-0.378,1.711l-1.801,8.282h-2.683l-2.161-11.956l-0.882-0.09v-1.332h3.565v1.314l-0.936,0.09l1.333,7.994
		c0.144,0.919,0.27,1.692,0.432,2.665h0.09c0.198-0.882,0.378-1.765,0.576-2.646l1.603-7.437h2.593l1.621,7.49
		c0.18,0.864,0.378,1.729,0.558,2.593h0.09c0.126-0.918,0.252-1.71,0.414-2.665l1.333-7.994l-0.954-0.09v-1.314h3.583v1.332
		L426.452,160.964z"/>
	<path fill="#252525" d="M436.08,172.92v-1.225l0.828-0.071l-2.791-4.214l-2.701,4.231l0.954,0.054v1.225h-3.727v-1.314l1.008-0.09
		l3.547-5.401l-3.457-5.15l-1.008-0.09v-1.332h3.727v1.225l-0.846,0.071l2.737,4.105l2.611-4.087l-0.936-0.09v-1.225h3.727v1.332
		l-1.026,0.09l-3.493,5.222l3.583,5.33l1.026,0.09v1.314H436.08z"/>
	<path fill="#252525" d="M450.84,160.946l-3.691,6.68v3.836l0.972,0.09v1.368h-3.583v-1.368l0.972-0.09v-3.836l-3.691-6.68
		l-0.81-0.072v-1.332h3.565v1.225l-0.99,0.09l1.71,3.097c0.342,0.63,0.756,1.423,1.026,2.125h0.108
		c0.252-0.685,0.738-1.495,1.081-2.125l1.692-3.097l-1.062-0.09v-1.225h3.529v1.332L450.84,160.946z"/>
	<path fill="#252525" d="M452.745,172.92v-1.837l7.22-10.064h-5.51l-0.162,1.242h-1.278v-2.719h8.733v1.818l-7.202,10.102h5.996
		l0.198-1.351H462v2.809H452.745z"/>
	<path fill="#252525" d="M168.42,196.92v-1.351l3.115-0.107v-10.336l-3.133,1.009v-1.44l3.565-1.261h1.206v12.028l3.097,0.107v1.351
		H168.42z"/>
	<path fill="#252525" d="M178.158,196.92v-1.692c0-2.935,1.134-4.016,4.087-5.618c2.232-1.206,2.701-1.836,2.701-3.043
		c0-1.368-0.828-1.818-3.043-1.818c-0.576,0-1.44,0.036-2.143,0.09l-0.18,1.423h-1.26v-2.521c0.18-0.036,2.053-0.414,3.673-0.414
		c3.097,0,4.609,0.954,4.609,3.24c0,1.675-0.756,2.827-3.439,4.268c-2.827,1.513-3.385,2.251-3.385,4.375v0.253h5.204l0.198-1.351
		h1.261v2.809H178.158z"/>
	<path fill="#252525" d="M192.271,197.172c-1.476,0-3.133-0.342-3.655-0.468v-2.575h1.278l0.18,1.53
		c0.648,0.055,1.387,0.091,2.179,0.091c2.017,0,3.043-0.433,3.043-2.449v-0.45c0-1.206-0.234-2.16-2.25-2.16h-3.871v-1.387h3.871
		c2.017,0,2.25-1.044,2.25-2.232v-0.234c0-1.584-0.684-2.089-3.061-2.089c-0.685,0-1.477,0.036-2.107,0.072l-0.18,1.44h-1.278
		v-2.539c0.234-0.054,2.107-0.396,3.601-0.396c3.151,0,4.682,0.864,4.682,3.511v0.234c0,1.188-0.45,2.341-1.621,2.917
		c1.188,0.594,1.621,1.656,1.621,2.862v0.45C196.953,196.218,195.224,197.172,192.271,197.172z"/>
	<path fill="#252525" d="M206.492,193.391v2.125l0.972,0.09v1.314h-3.601v-1.314l0.972-0.09v-2.125h-6.338v-1.692l6.104-8.156h1.891
		v8.408h2.034v1.44H206.492z M204.835,185.774l-4.681,6.176h4.681V185.774z"/>
	<path fill="#252525" d="M213.655,197.172c-1.674,0-3.277-0.342-3.691-0.432v-2.611h1.278l0.18,1.513
		c0.703,0.054,1.405,0.108,2.197,0.108c2.395,0,3.277-0.648,3.277-2.558v-0.521c0-1.765-0.63-2.413-3.277-2.413h-3.385l0.576-6.716
		h7.238v2.719h-1.26l-0.18-1.242h-4.393l-0.342,3.817h1.819c3.385,0,4.843,1.116,4.843,3.835v0.521
		C218.534,196.073,216.824,197.172,213.655,197.172z"/>
	<path fill="#252525" d="M225.031,197.172c-2.395,0-4.771-0.522-4.771-5.312v-3.475c0-3.277,1.224-5.06,5.005-5.06
		c1.584,0,3.151,0.288,3.655,0.396v2.539h-1.278l-0.18-1.44c-0.648-0.036-1.422-0.072-2.161-0.072c-3.097,0-3.385,1.459-3.385,3.638
		v0.63c0.882-0.252,2.269-0.414,3.133-0.414c2.25,0,4.465,0.468,4.465,3.583v0.756C229.514,196.596,226.615,197.172,225.031,197.172
		z M227.857,192.257c0-2.017-1.062-2.323-2.881-2.323c-0.72,0-1.927,0.072-3.061,0.343v1.674c0,3.115,1.207,3.8,3.115,3.8
		c1.512,0,2.827-0.811,2.827-2.81V192.257z"/>
	<path fill="#252525" d="M233.976,196.92h-1.854l6.14-11.901h-5.671l-0.162,1.242h-1.278v-2.719h8.66v1.765L233.976,196.92z"/>
	<path fill="#252525" d="M246.126,197.172h-0.054c-2.269,0-4.735-0.18-4.735-4.105v-0.144c0-1.494,0.504-2.358,1.458-2.953
		c-0.864-0.522-1.404-1.404-1.404-2.809v-0.198c0-3.079,2.413-3.637,4.681-3.637h0.054c2.269,0,4.681,0.558,4.681,3.637v0.198
		c0,1.404-0.54,2.286-1.404,2.809c0.955,0.595,1.458,1.459,1.458,2.953v0.144C250.862,196.992,248.395,197.172,246.126,197.172z
		 M249.206,192.923c0-1.53-0.45-2.251-1.891-2.251h-2.431c-1.44,0-1.891,0.721-1.891,2.251v0.144c0,2.431,1.278,2.684,3.079,2.684
		h0.054c1.8,0,3.079-0.253,3.079-2.684V192.923z M249.169,186.963c0-1.927-1.296-2.215-3.043-2.215h-0.054
		c-1.746,0-3.043,0.288-3.043,2.215v0.198c0,1.314,0.415,2.106,1.855,2.106h2.431c1.44,0,1.854-0.792,1.854-2.106V186.963z"/>
	<path fill="#252525" d="M256.926,197.154c-1.566,0-3.151-0.288-3.655-0.396v-2.557h1.26l0.198,1.458
		c0.63,0.036,1.44,0.072,2.161,0.072c3.097,0,3.385-1.458,3.385-3.637v-0.631c-0.864,0.253-2.25,0.414-3.133,0.414
		c-2.233,0-4.465-0.468-4.465-3.583v-0.756c0-3.655,2.917-4.231,4.501-4.231c2.395,0,4.753,0.522,4.753,5.312v3.476
		C261.932,195.371,260.726,197.154,256.926,197.154z M260.275,188.529c0-3.115-1.188-3.799-3.097-3.799
		c-1.531,0-2.845,0.81-2.845,2.809v0.685c0,2.017,1.081,2.322,2.881,2.322c0.738,0,1.927-0.072,3.061-0.342V188.529z"/>
	<path fill="#252525" d="M271.849,193.373l-0.396,3.547h-1.44l0.378-3.547h-3.025l-0.378,3.547h-1.458l0.396-3.547h-1.783v-1.387
		h1.927l0.36-3.367h-2.287v-1.368h2.449l0.414-3.709h1.44l-0.396,3.709h3.007l0.433-3.709h1.44l-0.396,3.709h1.909v1.368h-2.071
		l-0.36,3.367h2.431v1.387H271.849z M267.888,188.619l-0.36,3.367h3.025l0.36-3.367H267.888z"/>
	<path fill="#252525" d="M281.928,197.063v2.018h-1.566v-1.945c-1.386-0.054-2.737-0.252-3.151-0.359v-2.665h1.278l0.18,1.53
		c0.558,0.036,1.35,0.072,2.305,0.072c1.836,0,2.809-0.702,2.809-2.179c0-1.062-0.396-1.692-1.818-2.323l-2.305-1.026
		c-1.783-0.792-2.755-1.765-2.755-3.619c0-1.872,1.152-2.935,3.457-3.169v-1.872h1.566v1.818c1.386,0.036,2.629,0.234,3.061,0.342
		v2.575h-1.278l-0.198-1.404c-0.666-0.054-1.386-0.09-2.143-0.09c-1.801,0-2.773,0.432-2.773,1.8c0,0.991,0.378,1.603,1.801,2.233
		l2.305,1.008c1.764,0.774,2.755,1.854,2.755,3.728C285.458,195.516,284.269,196.812,281.928,197.063z"/>
	<path fill="#252525" d="M290.622,191.717c-2.341,0-3.169-1.603-3.169-3.691v-0.99c0-2.106,0.828-3.691,3.169-3.691
		c2.323,0,3.151,1.494,3.151,3.691v0.99C293.772,190.204,292.944,191.717,290.622,191.717z M292.332,187.035
		c0-1.854-0.54-2.467-1.71-2.467s-1.729,0.702-1.729,2.467v0.99c0,1.854,0.558,2.467,1.729,2.467s1.71-0.612,1.71-2.467V187.035z
		 M292.53,196.92h-1.621l8.535-13.378h1.62L292.53,196.92z M301.407,197.1c-2.035,0-3.169-1.26-3.169-3.673V192.4
		c0-2.412,1.134-3.655,3.169-3.655s3.169,1.243,3.169,3.655v1.026C304.576,195.84,303.441,197.1,301.407,197.1z M303.135,192.4
		c0-1.944-0.756-2.431-1.729-2.431s-1.729,0.486-1.729,2.431v1.026c0,1.944,0.756,2.449,1.729,2.449s1.729-0.505,1.729-2.449V192.4z
		"/>
	<path fill="#252525" d="M312.907,194.183c-2.521,0-3.583-0.882-3.583-2.7c0-0.271,0.036-0.973,0.072-1.368
		c0.234-2.989,1.566-3.728,3.439-3.728c1.044,0,2.07,0.145,2.935,0.36l-0.594,5.924c1.999-0.45,2.845-1.98,2.845-4.159
		c0-2.773-1.477-4.088-4.609-4.088c-3.259,0-5.042,1.405-5.708,5.294c-0.126,0.738-0.216,1.584-0.216,2.484
		c0,2.197,0.954,3.871,4.537,3.871c1.422,0,3.061-0.144,3.205-0.162v0.9c-0.342,0.055-1.783,0.271-3.187,0.271
		c-4.25,0-5.798-2.017-5.798-4.88c0-0.936,0.09-1.872,0.216-2.61c0.72-4.466,2.953-6.248,6.95-6.248
		c3.979,0,5.888,1.891,5.888,5.186C319.299,191.807,317.75,194.183,312.907,194.183z M312.853,187.719
		c-1.026,0-1.8,0.253-1.962,2.431c-0.054,0.738-0.072,1.081-0.072,1.333c0,1.134,0.576,1.458,2.052,1.458
		c0.306,0,0.468,0,0.756-0.018l0.486-5.132C313.771,187.737,313.231,187.719,312.853,187.719z"/>
	<path fill="#252525" d="M322.895,193.445h-1.404l-0.18-10.462h1.747L322.895,193.445z M321.365,196.92v-2.431h1.639v2.431H321.365z
		"/>
	<path fill="#252525" d="M327.323,196.92c-0.918-1.135-2.143-3.745-2.143-6.662v-0.09c0-2.917,1.225-5.456,2.143-6.626h1.422
		c-1.207,1.711-2.071,3.979-2.071,6.626v0.09c0,2.665,0.864,4.97,2.071,6.662H327.323z"/>
	<path fill="#252525" d="M330.544,196.92v-2.484h1.621v2.484H330.544z"/>
	<path fill="#252525" d="M335.188,198.522h-1.477l1.674-4.087h1.891L335.188,198.522z"/>
	<path fill="#252525" d="M339.292,198.522h-1.422l1.674-4.087h1.873L339.292,198.522z M339.562,189.502v-2.485h1.639v2.485H339.562z
		"/>
	<path fill="#252525" d="M345.484,189.502h-1.638v-2.485h1.638V189.502z M343.846,196.92v-2.484h1.638v2.484H343.846z"/>
	<path fill="#252525" d="M350.777,193.445h-1.584v-0.757c0-1.53,0.18-2.412,1.783-3.979c1.386-1.351,1.71-1.963,1.71-2.881v-0.145
		c0-1.225-0.792-1.513-2.232-1.513c-0.45,0-0.918,0.019-1.351,0.036l-0.216,1.368h-1.26v-2.412c0.882-0.234,2.017-0.414,2.971-0.414
		c2.395,0,3.763,0.81,3.763,2.935v0.145c0,1.152-0.432,2.07-1.873,3.511c-1.62,1.639-1.71,2.089-1.71,3.349V193.445z
		 M349.192,196.92v-2.484h1.621v2.484H349.192z"/>
	<path fill="#252525" d="M356.824,187.107h-1.242l0.864-4.124h1.71L356.824,187.107z M360.119,187.107h-1.242l0.864-4.124h1.71
		L360.119,187.107z"/>
	<path fill="#252525" d="M363.844,196.92h-1.422c1.207-1.692,2.071-3.997,2.071-6.662v-0.09c0-2.646-0.864-4.915-2.071-6.626h1.422
		c0.918,1.17,2.143,3.709,2.143,6.626v0.09C365.986,193.175,364.762,195.785,363.844,196.92z"/>
</g>
<line fill="none" stroke="#E5E5E5" stroke-miterlimit="10" x1="0" y1="100.5" x2="463" y2="100.5"/>
<line fill="none" stroke="#E5E5E5" stroke-miterlimit="10" x1="462" y1="100.5" x2="925" y2="100.5"/>
</svg>
